<svg width="184" height="45" viewBox="0 0 184 45" fill="none" xmlns="http://www.w3.org/2000/svg">
<rect width="184" height="45" rx="22.5" fill="#E9E9E9"/>
<path d="M33.1504 27L29.7598 18.1406H29.7051C29.7689 18.8424 29.8008 19.6764 29.8008 20.6426V27H28.7275V17.0059H30.4775L33.6426 25.25H33.6973L36.8896 17.0059H38.626V27H37.4639V20.5605C37.4639 19.8223 37.4958 19.0202 37.5596 18.1543H37.5049L34.0869 27H33.1504ZM47.6699 23.2471C47.6699 24.4684 47.3623 25.4232 46.7471 26.1113C46.1318 26.7949 45.2819 27.1367 44.1973 27.1367C43.5273 27.1367 42.9326 26.9795 42.4131 26.665C41.8936 26.3506 41.4925 25.8994 41.21 25.3115C40.9274 24.7236 40.7861 24.0355 40.7861 23.2471C40.7861 22.0257 41.0915 21.0755 41.7021 20.3965C42.3128 19.7129 43.1605 19.3711 44.2451 19.3711C45.2933 19.3711 46.125 19.7197 46.7402 20.417C47.36 21.1143 47.6699 22.0576 47.6699 23.2471ZM41.9619 23.2471C41.9619 24.2041 42.1533 24.9333 42.5361 25.4346C42.9189 25.9359 43.4818 26.1865 44.2246 26.1865C44.9674 26.1865 45.5303 25.9382 45.9131 25.4414C46.3005 24.9401 46.4941 24.2087 46.4941 23.2471C46.4941 22.2946 46.3005 21.5723 45.9131 21.0801C45.5303 20.5833 44.9629 20.335 44.2109 20.335C43.4681 20.335 42.9076 20.5788 42.5293 21.0664C42.151 21.554 41.9619 22.2809 41.9619 23.2471ZM53.084 19.3711C53.4167 19.3711 53.7152 19.3984 53.9795 19.4531L53.8223 20.5059C53.5124 20.4375 53.2389 20.4033 53.002 20.4033C52.3958 20.4033 51.8763 20.6494 51.4434 21.1416C51.015 21.6338 50.8008 22.2467 50.8008 22.9805V27H49.666V19.5078H50.6025L50.7324 20.8955H50.7871C51.0651 20.4079 51.4001 20.0319 51.792 19.7676C52.1839 19.5033 52.6146 19.3711 53.084 19.3711ZM58.5459 27.1367C57.4385 27.1367 56.5635 26.7995 55.9209 26.125C55.2829 25.4505 54.9639 24.514 54.9639 23.3154C54.9639 22.1077 55.2601 21.1484 55.8525 20.4375C56.4495 19.7266 57.2493 19.3711 58.252 19.3711C59.1908 19.3711 59.9336 19.681 60.4805 20.3008C61.0273 20.916 61.3008 21.7295 61.3008 22.7412V23.459H56.1396C56.1624 24.3385 56.3835 25.0062 56.8027 25.4619C57.2266 25.9176 57.8213 26.1455 58.5869 26.1455C59.3936 26.1455 60.1911 25.9769 60.9795 25.6396V26.6514C60.5785 26.8245 60.1979 26.9476 59.8379 27.0205C59.4824 27.098 59.0518 27.1367 58.5459 27.1367ZM58.2383 20.3213C57.6367 20.3213 57.1559 20.5173 56.7959 20.9092C56.4404 21.3011 56.2308 21.8434 56.167 22.5361H60.084C60.084 21.8206 59.9245 21.2738 59.6055 20.8955C59.2865 20.5127 58.8307 20.3213 58.2383 20.3213ZM71.7119 24.9561C71.7119 25.6533 71.4521 26.1911 70.9326 26.5693C70.4131 26.9476 69.6839 27.1367 68.7451 27.1367C67.7516 27.1367 66.9769 26.9795 66.4209 26.665V25.6123C66.7809 25.7946 67.166 25.9382 67.5762 26.043C67.9909 26.1478 68.3896 26.2002 68.7725 26.2002C69.3649 26.2002 69.8206 26.1068 70.1396 25.9199C70.4587 25.7285 70.6182 25.4391 70.6182 25.0518C70.6182 24.7601 70.4906 24.5117 70.2354 24.3066C69.9847 24.097 69.4925 23.8509 68.7588 23.5684C68.0615 23.3086 67.5648 23.083 67.2686 22.8916C66.9769 22.6956 66.7581 22.4746 66.6123 22.2285C66.471 21.9824 66.4004 21.6885 66.4004 21.3467C66.4004 20.736 66.6488 20.2552 67.1455 19.9043C67.6423 19.5488 68.3236 19.3711 69.1895 19.3711C69.9961 19.3711 70.7845 19.5352 71.5547 19.8633L71.1514 20.7861C70.3994 20.4762 69.7181 20.3213 69.1074 20.3213C68.5697 20.3213 68.1641 20.4056 67.8906 20.5742C67.6172 20.7428 67.4805 20.9753 67.4805 21.2715C67.4805 21.472 67.5306 21.6429 67.6309 21.7842C67.7357 21.9255 67.902 22.0599 68.1299 22.1875C68.3577 22.3151 68.7952 22.4997 69.4424 22.7412C70.3311 23.0648 70.9303 23.3906 71.2402 23.7188C71.5547 24.0469 71.7119 24.4593 71.7119 24.9561ZM76.7295 27.1367C75.6221 27.1367 74.7471 26.7995 74.1045 26.125C73.4665 25.4505 73.1475 24.514 73.1475 23.3154C73.1475 22.1077 73.4437 21.1484 74.0361 20.4375C74.6331 19.7266 75.4329 19.3711 76.4355 19.3711C77.3743 19.3711 78.1172 19.681 78.6641 20.3008C79.2109 20.916 79.4844 21.7295 79.4844 22.7412V23.459H74.3232C74.346 24.3385 74.5671 25.0062 74.9863 25.4619C75.4102 25.9176 76.0049 26.1455 76.7705 26.1455C77.5771 26.1455 78.3747 25.9769 79.1631 25.6396V26.6514C78.762 26.8245 78.3815 26.9476 78.0215 27.0205C77.666 27.098 77.2354 27.1367 76.7295 27.1367ZM76.4219 20.3213C75.8203 20.3213 75.3395 20.5173 74.9795 20.9092C74.624 21.3011 74.4144 21.8434 74.3506 22.5361H78.2676C78.2676 21.8206 78.1081 21.2738 77.7891 20.8955C77.4701 20.5127 77.0143 20.3213 76.4219 20.3213ZM86.0332 27L85.8076 25.9336H85.7529C85.3792 26.403 85.0055 26.722 84.6318 26.8906C84.2627 27.0547 83.8001 27.1367 83.2441 27.1367C82.5013 27.1367 81.918 26.9453 81.4941 26.5625C81.0749 26.1797 80.8652 25.6351 80.8652 24.9287C80.8652 23.4157 82.0752 22.6227 84.4951 22.5498L85.7666 22.5088V22.0439C85.7666 21.4561 85.639 21.0231 85.3838 20.7451C85.1331 20.4626 84.7298 20.3213 84.1738 20.3213C83.5495 20.3213 82.8431 20.5127 82.0547 20.8955L81.7061 20.0273C82.0752 19.8268 82.4785 19.6696 82.916 19.5557C83.3581 19.4417 83.8001 19.3848 84.2422 19.3848C85.1354 19.3848 85.7962 19.583 86.2246 19.9795C86.6576 20.376 86.874 21.0117 86.874 21.8867V27H86.0332ZM83.4697 26.2002C84.1761 26.2002 84.7298 26.0065 85.1309 25.6191C85.5365 25.2318 85.7393 24.6895 85.7393 23.9922V23.3154L84.6045 23.3633C83.7021 23.3952 83.0505 23.5365 82.6494 23.7871C82.2529 24.0332 82.0547 24.4183 82.0547 24.9424C82.0547 25.3525 82.1777 25.6647 82.4238 25.8789C82.6745 26.0931 83.0231 26.2002 83.4697 26.2002ZM92.6367 19.3711C92.9694 19.3711 93.2679 19.3984 93.5322 19.4531L93.375 20.5059C93.0651 20.4375 92.7917 20.4033 92.5547 20.4033C91.9486 20.4033 91.429 20.6494 90.9961 21.1416C90.5677 21.6338 90.3535 22.2467 90.3535 22.9805V27H89.2188V19.5078H90.1553L90.2852 20.8955H90.3398C90.6178 20.4079 90.9528 20.0319 91.3447 19.7676C91.7367 19.5033 92.1673 19.3711 92.6367 19.3711ZM97.9277 27.1367C96.8431 27.1367 96.0023 26.804 95.4053 26.1387C94.8128 25.4688 94.5166 24.5231 94.5166 23.3018C94.5166 22.0485 94.8174 21.0801 95.4189 20.3965C96.0251 19.7129 96.8864 19.3711 98.0029 19.3711C98.363 19.3711 98.723 19.4098 99.083 19.4873C99.443 19.5648 99.7256 19.6559 99.9307 19.7607L99.582 20.7246C99.3314 20.6243 99.0579 20.5423 98.7617 20.4785C98.4655 20.4102 98.2035 20.376 97.9756 20.376C96.4535 20.376 95.6924 21.3467 95.6924 23.2881C95.6924 24.2087 95.877 24.915 96.2461 25.4072C96.6198 25.8994 97.1712 26.1455 97.9004 26.1455C98.5247 26.1455 99.165 26.0111 99.8213 25.7422V26.7471C99.32 27.0068 98.6888 27.1367 97.9277 27.1367ZM106.732 27V22.1533C106.732 21.5426 106.593 21.0869 106.315 20.7861C106.037 20.4854 105.602 20.335 105.01 20.335C104.221 20.335 103.645 20.5492 103.28 20.9775C102.92 21.4059 102.74 22.1077 102.74 23.083V27H101.605V16.3633H102.74V19.583C102.74 19.9704 102.722 20.2917 102.686 20.5469H102.754C102.977 20.1868 103.294 19.9043 103.704 19.6992C104.119 19.4896 104.59 19.3848 105.119 19.3848C106.035 19.3848 106.721 19.6035 107.177 20.041C107.637 20.474 107.867 21.1644 107.867 22.1123V27H106.732ZM118.969 27V22.1533C118.969 21.5426 118.83 21.0869 118.552 20.7861C118.274 20.4854 117.839 20.335 117.246 20.335C116.458 20.335 115.881 20.5492 115.517 20.9775C115.157 21.4059 114.977 22.1077 114.977 23.083V27H113.842V16.3633H114.977V19.583C114.977 19.9704 114.958 20.2917 114.922 20.5469H114.99C115.214 20.1868 115.53 19.9043 115.94 19.6992C116.355 19.4896 116.827 19.3848 117.355 19.3848C118.271 19.3848 118.957 19.6035 119.413 20.041C119.873 20.474 120.104 21.1644 120.104 22.1123V27H118.969ZM123.576 27H122.441V19.5078H123.576V27ZM122.346 17.4775C122.346 17.2178 122.41 17.0286 122.537 16.9102C122.665 16.7871 122.824 16.7256 123.016 16.7256C123.198 16.7256 123.355 16.7871 123.487 16.9102C123.619 17.0332 123.686 17.2223 123.686 17.4775C123.686 17.7327 123.619 17.9242 123.487 18.0518C123.355 18.1748 123.198 18.2363 123.016 18.2363C122.824 18.2363 122.665 18.1748 122.537 18.0518C122.41 17.9242 122.346 17.7327 122.346 17.4775ZM130.815 24.9561C130.815 25.6533 130.556 26.1911 130.036 26.5693C129.517 26.9476 128.787 27.1367 127.849 27.1367C126.855 27.1367 126.08 26.9795 125.524 26.665V25.6123C125.884 25.7946 126.27 25.9382 126.68 26.043C127.094 26.1478 127.493 26.2002 127.876 26.2002C128.468 26.2002 128.924 26.1068 129.243 25.9199C129.562 25.7285 129.722 25.4391 129.722 25.0518C129.722 24.7601 129.594 24.5117 129.339 24.3066C129.088 24.097 128.596 23.8509 127.862 23.5684C127.165 23.3086 126.668 23.083 126.372 22.8916C126.08 22.6956 125.862 22.4746 125.716 22.2285C125.575 21.9824 125.504 21.6885 125.504 21.3467C125.504 20.736 125.752 20.2552 126.249 19.9043C126.746 19.5488 127.427 19.3711 128.293 19.3711C129.1 19.3711 129.888 19.5352 130.658 19.8633L130.255 20.7861C129.503 20.4762 128.822 20.3213 128.211 20.3213C127.673 20.3213 127.268 20.4056 126.994 20.5742C126.721 20.7428 126.584 20.9753 126.584 21.2715C126.584 21.472 126.634 21.6429 126.734 21.7842C126.839 21.9255 127.006 22.0599 127.233 22.1875C127.461 22.3151 127.899 22.4997 128.546 22.7412C129.435 23.0648 130.034 23.3906 130.344 23.7188C130.658 24.0469 130.815 24.4593 130.815 24.9561ZM135.088 26.2002C135.288 26.2002 135.482 26.1865 135.669 26.1592C135.856 26.1273 136.004 26.0954 136.113 26.0635V26.9316C135.99 26.9909 135.808 27.0387 135.566 27.0752C135.329 27.1162 135.115 27.1367 134.924 27.1367C133.475 27.1367 132.75 26.3734 132.75 24.8467V20.3896H131.677V19.8428L132.75 19.3711L133.229 17.7715H133.885V19.5078H136.059V20.3896H133.885V24.7988C133.885 25.25 133.992 25.5964 134.206 25.8379C134.42 26.0794 134.714 26.2002 135.088 26.2002ZM144.084 23.2471C144.084 24.4684 143.776 25.4232 143.161 26.1113C142.546 26.7949 141.696 27.1367 140.611 27.1367C139.941 27.1367 139.347 26.9795 138.827 26.665C138.308 26.3506 137.907 25.8994 137.624 25.3115C137.341 24.7236 137.2 24.0355 137.2 23.2471C137.2 22.0257 137.506 21.0755 138.116 20.3965C138.727 19.7129 139.575 19.3711 140.659 19.3711C141.707 19.3711 142.539 19.7197 143.154 20.417C143.774 21.1143 144.084 22.0576 144.084 23.2471ZM138.376 23.2471C138.376 24.2041 138.567 24.9333 138.95 25.4346C139.333 25.9359 139.896 26.1865 140.639 26.1865C141.382 26.1865 141.944 25.9382 142.327 25.4414C142.715 24.9401 142.908 24.2087 142.908 23.2471C142.908 22.2946 142.715 21.5723 142.327 21.0801C141.944 20.5833 141.377 20.335 140.625 20.335C139.882 20.335 139.322 20.5788 138.943 21.0664C138.565 21.554 138.376 22.2809 138.376 23.2471ZM149.498 19.3711C149.831 19.3711 150.129 19.3984 150.394 19.4531L150.236 20.5059C149.926 20.4375 149.653 20.4033 149.416 20.4033C148.81 20.4033 148.29 20.6494 147.857 21.1416C147.429 21.6338 147.215 22.2467 147.215 22.9805V27H146.08V19.5078H147.017L147.146 20.8955H147.201C147.479 20.4079 147.814 20.0319 148.206 19.7676C148.598 19.5033 149.029 19.3711 149.498 19.3711ZM150.605 19.5078H151.822L153.463 23.7803C153.823 24.7555 154.046 25.4596 154.133 25.8926H154.188C154.247 25.6602 154.37 25.2637 154.557 24.7031C154.748 24.138 155.368 22.4062 156.416 19.5078H157.633L154.413 28.0391C154.094 28.8822 153.72 29.4792 153.292 29.8301C152.868 30.1855 152.346 30.3633 151.727 30.3633C151.38 30.3633 151.038 30.3245 150.701 30.2471V29.3379C150.952 29.3926 151.232 29.4199 151.542 29.4199C152.321 29.4199 152.877 28.9824 153.21 28.1074L153.627 27.041L150.605 19.5078Z" fill="#7D7D7D"/>
</svg>
