<svg width="319" height="95" viewBox="0 0 319 95" fill="none" xmlns="http://www.w3.org/2000/svg">
<path fill-rule="evenodd" clip-rule="evenodd" d="M75.34 39.36C78.5601 39.36 81.4534 40.06 84.02 41.46C86.5867 42.86 88.5934 44.9017 90.0401 47.585C91.4867 50.2683 92.21 53.5 92.21 57.28V74.5C92.21 75.5267 91.8717 76.3783 91.195 77.055C90.5184 77.7317 89.6667 78.07 88.64 78.07C87.6134 78.07 86.7617 77.7317 86.085 77.055C85.4084 76.3783 85.07 75.5267 85.07 74.5V57.28C85.07 53.5 84.0551 50.6417 82.025 48.705C79.995 46.7683 77.3001 45.8 73.94 45.8C71.98 45.8 70.1951 46.1967 68.585 46.99C66.975 47.7833 65.7151 48.8567 64.805 50.21C63.895 51.5633 63.44 53.08 63.44 54.76V74.5C63.44 75.5267 63.1134 76.3783 62.46 77.055C61.8067 77.7317 60.9434 78.07 59.87 78.07C58.8434 78.07 57.9917 77.7317 57.315 77.055C56.6384 76.3783 56.3 75.5267 56.3 74.5V43.28C56.3 42.2067 56.6384 41.3433 57.315 40.69C57.9917 40.0367 58.8434 39.71 59.87 39.71C60.9434 39.71 61.8067 40.0367 62.46 40.69C63.1134 41.3433 63.44 42.2067 63.44 43.28V44.05C64.9334 42.5567 66.7067 41.4017 68.76 40.585C70.8134 39.7683 73.0067 39.36 75.34 39.36ZM133.3 40.06C134.747 40.62 135.47 41.53 135.47 42.79C135.47 43.2567 135.33 43.8167 135.05 44.47L113.63 92.63C113.07 94.0767 112.16 94.8 110.9 94.8C110.433 94.8 109.873 94.66 109.22 94.38C107.82 93.7733 107.12 92.8633 107.12 91.65C107.12 91.09 107.26 90.53 107.54 89.97L114.54 74.22L98.79 44.33C98.5567 43.91 98.44 43.42 98.44 42.86C98.44 42.2533 98.6267 41.6933 99 41.18C99.3734 40.6667 99.8634 40.27 100.47 39.99C100.89 39.8033 101.357 39.71 101.87 39.71C103.177 39.71 104.157 40.3633 104.81 41.67L117.62 67.15L128.89 41.74C129.497 40.3867 130.407 39.71 131.62 39.71C132.227 39.71 132.787 39.8267 133.3 40.06ZM145.34 23.33C146.367 23.33 147.218 23.6567 147.895 24.31C148.572 24.9633 148.91 25.8267 148.91 26.9V45.8C150.543 43.7933 152.527 42.23 154.86 41.11C157.193 39.99 159.713 39.43 162.42 39.43C165.78 39.43 168.825 40.27 171.555 41.95C174.285 43.63 176.432 45.9517 177.995 48.915C179.558 51.8783 180.34 55.18 180.34 58.82C180.34 62.46 179.5 65.7617 177.82 68.725C176.14 71.6884 173.818 74.0217 170.855 75.725C167.892 77.4283 164.613 78.28 161.02 78.28C157.427 78.28 154.172 77.4283 151.255 75.725C148.338 74.0217 146.028 71.6884 144.325 68.725C142.622 65.7617 141.77 62.46 141.77 58.82V26.9C141.77 25.8267 142.097 24.9633 142.75 24.31C143.403 23.6567 144.267 23.33 145.34 23.33ZM161.02 71.98C163.353 71.98 165.465 71.4083 167.355 70.265C169.245 69.1217 170.738 67.5467 171.835 65.54C172.932 63.5333 173.48 61.2933 173.48 58.82C173.48 56.3467 172.932 54.1183 171.835 52.135C170.738 50.1517 169.245 48.5883 167.355 47.445C165.465 46.3017 163.353 45.73 161.02 45.73C158.687 45.73 156.575 46.3017 154.685 47.445C152.795 48.5883 151.313 50.1517 150.24 52.135C149.167 54.1183 148.63 56.3467 148.63 58.82C148.63 61.2933 149.167 63.5333 150.24 65.54C151.313 67.5467 152.795 69.1217 154.685 70.265C156.575 71.4083 158.687 71.98 161.02 71.98ZM208.34 39.43C212.027 39.43 215.328 40.2583 218.245 41.915C221.162 43.5717 223.448 45.87 225.105 48.81C226.762 51.75 227.59 55.11 227.59 58.89C227.59 62.6234 226.773 65.96 225.14 68.9C223.507 71.84 221.232 74.1383 218.315 75.795C215.398 77.4517 212.073 78.28 208.34 78.28C204.607 78.28 201.27 77.4517 198.33 75.795C195.39 74.1383 193.103 71.84 191.47 68.9C189.837 65.96 189.02 62.6234 189.02 58.89C189.02 55.11 189.837 51.75 191.47 48.81C193.103 45.87 195.39 43.5717 198.33 41.915C201.27 40.2583 204.607 39.43 208.34 39.43ZM208.34 45.73C205.96 45.73 203.825 46.29 201.935 47.41C200.045 48.53 198.563 50.0933 197.49 52.1C196.417 54.1067 195.88 56.37 195.88 58.89C195.88 61.41 196.417 63.6617 197.49 65.645C198.563 67.6283 200.045 69.18 201.935 70.3C203.825 71.42 205.96 71.98 208.34 71.98C210.72 71.98 212.855 71.42 214.745 70.3C216.635 69.18 218.105 67.6283 219.155 65.645C220.205 63.6617 220.73 61.41 220.73 58.89C220.73 56.37 220.205 54.1067 219.155 52.1C218.105 50.0933 216.635 48.53 214.745 47.41C212.855 46.29 210.72 45.73 208.34 45.73ZM271.27 23.33C272.343 23.33 273.207 23.6567 273.86 24.31C274.513 24.9633 274.84 25.8267 274.84 26.9V58.82C274.84 62.46 273.988 65.7617 272.285 68.725C270.582 71.6884 268.272 74.0217 265.355 75.725C262.438 77.4283 259.183 78.28 255.59 78.28C251.997 78.28 248.718 77.4283 245.755 75.725C242.792 74.0217 240.47 71.6884 238.79 68.725C237.11 65.7617 236.27 62.46 236.27 58.82C236.27 55.18 237.052 51.8783 238.615 48.915C240.178 45.9517 242.325 43.63 245.055 41.95C247.785 40.27 250.83 39.43 254.19 39.43C256.897 39.43 259.417 39.99 261.75 41.11C264.083 42.23 266.067 43.7933 267.7 45.8V26.9C267.7 25.8267 268.038 24.9633 268.715 24.31C269.392 23.6567 270.243 23.33 271.27 23.33ZM255.59 71.98C257.923 71.98 260.035 71.4083 261.925 70.265C263.815 69.1217 265.297 67.5467 266.37 65.54C267.443 63.5333 267.98 61.2933 267.98 58.82C267.98 56.3467 267.443 54.1183 266.37 52.135C265.297 50.1517 263.815 48.5883 261.925 47.445C260.035 46.3017 257.923 45.73 255.59 45.73C253.257 45.73 251.145 46.3017 249.255 47.445C247.365 48.5883 245.872 50.1517 244.775 52.135C243.678 54.1183 243.13 56.3467 243.13 58.82C243.13 61.2933 243.678 63.5333 244.775 65.54C245.872 67.5467 247.365 69.1217 249.255 70.265C251.145 71.4083 253.257 71.98 255.59 71.98ZM316.7 40.06C318.147 40.62 318.87 41.53 318.87 42.79C318.87 43.2567 318.73 43.8167 318.45 44.47L297.03 92.63C296.47 94.0767 295.56 94.8 294.3 94.8C293.833 94.8 293.273 94.66 292.62 94.38C291.22 93.7733 290.52 92.8633 290.52 91.65C290.52 91.09 290.66 90.53 290.94 89.97L297.94 74.22L282.19 44.33C281.957 43.91 281.84 43.42 281.84 42.86C281.84 42.2533 282.027 41.6933 282.4 41.18C282.773 40.6667 283.263 40.27 283.87 39.99C284.29 39.8033 284.757 39.71 285.27 39.71C286.577 39.71 287.557 40.3633 288.21 41.67L301.02 67.15L312.29 41.74C312.897 40.3867 313.807 39.71 315.02 39.71C315.627 39.71 316.187 39.8267 316.7 40.06Z" fill="#0288D1"/>
<path fill-rule="evenodd" clip-rule="evenodd" d="M47.9999 78.699C47.2415 67.0524 36.0313 31 24.0628 31C12.0943 31 -1.45093 67.9529 0.125771 78.699C0.57179 81.7388 4.28689 78.9871 9.37654 75.2173C15.1136 70.9679 22.5971 65.4249 29.1138 65.4249C37.2617 65.4249 43.0409 73.3649 45.9223 77.3236C47.3898 79.3399 48.1056 80.3233 47.9999 78.699ZM38.1111 55.2525C38.1111 59.6262 34.5656 63.1717 30.1919 63.1717C25.8183 63.1717 22.2727 59.6262 22.2727 55.2525C22.2727 50.8789 25.8183 47.3333 30.1919 47.3333C34.5656 47.3333 38.1111 50.8789 38.1111 55.2525Z" fill="#0288D1"/>
</svg>
