<svg width="225" height="56" viewBox="0 0 225 56" fill="none" xmlns="http://www.w3.org/2000/svg">
<path fill-rule="evenodd" clip-rule="evenodd" d="M53.1613 12.8162C55.4334 12.8162 57.4749 13.3615 59.286 14.452C61.0971 15.5425 62.513 17.1328 63.5338 19.2229C64.5546 21.313 65.065 23.8302 65.065 26.7746V40.1878C65.065 40.9875 64.8263 41.6508 64.3488 42.1779C63.8713 42.705 63.2704 42.9685 62.546 42.9685C61.8215 42.9685 61.2206 42.705 60.7431 42.1779C60.2656 41.6508 60.0269 40.9875 60.0269 40.1878V26.7746C60.0269 23.8302 59.3107 21.6038 57.8783 20.0953C56.4459 18.5868 54.5443 17.8325 52.1734 17.8325C50.7904 17.8325 49.5309 18.1415 48.3948 18.7594C47.2588 19.3774 46.3697 20.2134 45.7276 21.2676C45.0855 22.3217 44.7644 23.5031 44.7644 24.8117V40.1878C44.7644 40.9875 44.5339 41.6508 44.0729 42.1779C43.6119 42.705 43.0027 42.9685 42.2454 42.9685C41.5209 42.9685 40.92 42.705 40.4425 42.1779C39.965 41.6508 39.7263 40.9875 39.7263 40.1878V15.8696C39.7263 15.0336 39.965 14.3611 40.4425 13.8522C40.92 13.3433 41.5209 13.0888 42.2454 13.0888C43.0027 13.0888 43.6119 13.3433 44.0729 13.8522C44.5339 14.3611 44.7644 15.0336 44.7644 15.8696V16.4694C45.8181 15.3062 47.0694 14.4065 48.5183 13.7704C49.9672 13.1343 51.5148 12.8162 53.1613 12.8162ZM94.0587 13.3615C95.0795 13.7977 95.5899 14.5065 95.5899 15.4879C95.5899 15.8514 95.4911 16.2876 95.2936 16.7965L80.1792 54.3097C79.7841 55.4366 79.142 56 78.2529 56C77.9236 56 77.5285 55.891 77.0675 55.6729C76.0796 55.2003 75.5857 54.4915 75.5857 53.5464C75.5857 53.1102 75.6845 52.674 75.882 52.2378L80.8214 39.9697L69.7079 16.6875C69.5433 16.3603 69.4609 15.9787 69.4609 15.5425C69.4609 15.0699 69.5926 14.6337 69.8561 14.2339C70.1195 13.834 70.4653 13.525 70.8933 13.3069C71.1897 13.1615 71.519 13.0888 71.8812 13.0888C72.8032 13.0888 73.4947 13.5977 73.9557 14.6155L82.9947 34.4626L90.947 14.6701C91.375 13.6159 92.0171 13.0888 92.8733 13.0888C93.3014 13.0888 93.6965 13.1797 94.0587 13.3615ZM102.554 0.329987C103.279 0.329987 103.88 0.584434 104.357 1.09334C104.835 1.60224 105.073 2.27471 105.073 3.11076V17.8325C106.226 16.2694 107.625 15.0517 109.272 14.1793C110.918 13.3069 112.696 12.8707 114.606 12.8707C116.977 12.8707 119.126 13.525 121.052 14.8336C122.978 16.1422 124.493 17.9506 125.596 20.2589C126.699 22.5671 127.251 25.1388 127.251 27.9742C127.251 30.8095 126.658 33.3812 125.473 35.6894C124.287 37.9977 122.649 39.8152 120.558 41.1419C118.467 42.4687 116.154 43.1321 113.618 43.1321C111.083 43.1321 108.786 42.4687 106.728 41.1419C104.67 39.8152 103.04 37.9977 101.838 35.6894C100.636 33.3812 100.035 30.8095 100.035 27.9742V3.11076C100.035 2.27471 100.266 1.60224 100.727 1.09334C101.188 0.584434 101.797 0.329987 102.554 0.329987ZM113.619 38.2248C115.265 38.2248 116.755 37.7796 118.089 36.889C119.422 35.9984 120.476 34.7716 121.25 33.2085C122.024 31.6455 122.411 29.9007 122.411 27.9741C122.411 26.0476 122.024 24.3119 121.25 22.767C120.476 21.2221 119.422 20.0044 118.089 19.1138C116.755 18.2233 115.265 17.778 113.619 17.778C111.972 17.778 110.482 18.2233 109.148 19.1138C107.815 20.0044 106.769 21.2221 106.012 22.767C105.255 24.3119 104.876 26.0476 104.876 27.9741C104.876 29.9007 105.255 31.6455 106.012 33.2085C106.769 34.7716 107.815 35.9984 109.148 36.889C110.482 37.7796 111.972 38.2248 113.619 38.2248ZM147.008 12.8707C149.61 12.8707 151.939 13.5159 153.997 14.8064C156.055 16.0968 157.669 17.887 158.838 20.1771C160.007 22.4671 160.591 25.0843 160.591 28.0287C160.591 30.9367 160.015 33.5357 158.863 35.8258C157.71 38.1158 156.105 39.906 154.047 41.1965C151.989 42.4869 149.643 43.1321 147.008 43.1321C144.374 43.1321 142.02 42.4869 139.945 41.1965C137.871 39.906 136.257 38.1158 135.105 35.8258C133.952 33.5357 133.376 30.9367 133.376 28.0287C133.376 25.0843 133.952 22.4671 135.105 20.1771C136.257 17.887 137.871 16.0968 139.945 14.8064C142.02 13.5159 144.374 12.8707 147.008 12.8707ZM147.008 17.778C145.329 17.778 143.822 18.2142 142.489 19.0866C141.155 19.959 140.11 21.1767 139.352 22.7398C138.595 24.3028 138.216 26.0658 138.216 28.0287C138.216 29.9916 138.595 31.7455 139.352 33.2903C140.11 34.8352 141.155 36.0438 142.489 36.9162C143.822 37.7887 145.329 38.2248 147.008 38.2248C148.688 38.2248 150.194 37.7887 151.528 36.9162C152.861 36.0438 153.899 34.8352 154.64 33.2903C155.38 31.7455 155.751 29.9916 155.751 28.0287C155.751 26.0658 155.38 24.3028 154.64 22.7398C153.899 21.1767 152.861 19.959 151.528 19.0866C150.194 18.2142 148.688 17.778 147.008 17.778ZM191.413 0.329987C192.17 0.329987 192.779 0.584434 193.24 1.09334C193.701 1.60224 193.932 2.27471 193.932 3.11076V27.9742C193.932 30.8095 193.331 33.3812 192.129 35.6894C190.927 37.9977 189.297 39.8152 187.239 41.1419C185.181 42.4687 182.884 43.1321 180.349 43.1321C177.813 43.1321 175.5 42.4687 173.409 41.1419C171.318 39.8152 169.68 37.9977 168.494 35.6894C167.309 33.3812 166.716 30.8095 166.716 27.9742C166.716 25.1388 167.268 22.5671 168.371 20.2589C169.474 17.9506 170.989 16.1422 172.915 14.8336C174.841 13.525 176.99 12.8707 179.361 12.8707C181.271 12.8707 183.049 13.3069 184.695 14.1793C186.342 15.0517 187.741 16.2694 188.894 17.8325V3.11076C188.894 2.27471 189.132 1.60224 189.61 1.09334C190.087 0.584434 190.688 0.329987 191.413 0.329987ZM180.349 38.2248C181.995 38.2248 183.485 37.7796 184.819 36.889C186.152 35.9984 187.198 34.7716 187.955 33.2085C188.713 31.6455 189.091 29.9007 189.091 27.9741C189.091 26.0476 188.713 24.3119 187.955 22.767C187.198 21.2221 186.152 20.0044 184.819 19.1138C183.485 18.2233 181.995 17.778 180.349 17.778C178.702 17.778 177.212 18.2233 175.879 19.1138C174.545 20.0044 173.491 21.2221 172.717 22.767C171.944 24.3119 171.557 26.0476 171.557 27.9741C171.557 29.9007 171.944 31.6455 172.717 33.2085C173.491 34.7716 174.545 35.9984 175.879 36.889C177.212 37.7796 178.702 38.2248 180.349 38.2248ZM223.469 13.3615C224.49 13.7977 225 14.5065 225 15.4879C225 15.8514 224.901 16.2876 224.704 16.7965L209.589 54.3097C209.194 55.4366 208.552 56 207.663 56C207.334 56 206.939 55.891 206.478 55.6729C205.49 55.2003 204.996 54.4915 204.996 53.5464C204.996 53.1102 205.095 52.674 205.292 52.2378L210.232 39.9697L199.118 16.6875C198.953 16.3603 198.871 15.9787 198.871 15.5425C198.871 15.0699 199.003 14.6337 199.266 14.2339C199.53 13.834 199.875 13.525 200.304 13.3069C200.6 13.1615 200.929 13.0888 201.291 13.0888C202.213 13.0888 202.905 13.5977 203.366 14.6155L212.405 34.4626L220.357 14.6701C220.785 13.6159 221.427 13.0888 222.284 13.0888C222.712 13.0888 223.107 13.1797 223.469 13.3615Z" fill="#0288D1"/>
<path fill-rule="evenodd" clip-rule="evenodd" d="M33.8695 43.4585C33.3344 34.3867 25.4243 6.30438 16.9791 6.30438C8.53394 6.30438 -1.0238 35.088 0.0887463 43.4585C0.403464 45.8263 3.0249 43.6829 6.61625 40.7465C10.6644 37.4365 15.9449 33.1189 20.5432 33.1189C26.2925 33.1189 30.3704 39.3036 32.4035 42.3871C33.439 43.9577 33.9441 44.7237 33.8695 43.4585ZM26.8918 25.1954C26.8918 28.6021 24.39 31.3638 21.3039 31.3638C18.2178 31.3638 15.716 28.6021 15.716 25.1954C15.716 21.7886 18.2178 19.0269 21.3039 19.0269C24.39 19.0269 26.8918 21.7886 26.8918 25.1954Z" fill="#0288D1"/>
</svg>
