<?xml version="1.0" encoding="UTF-8" standalone="no"?>
<svg
   xmlns:dc="http://purl.org/dc/elements/1.1/"
   xmlns:cc="http://creativecommons.org/ns#"
   xmlns:rdf="http://www.w3.org/1999/02/22-rdf-syntax-ns#"
   xmlns:svg="http://www.w3.org/2000/svg"
   xmlns="http://www.w3.org/2000/svg"
   xmlns:sodipodi="http://sodipodi.sourceforge.net/DTD/sodipodi-0.dtd"
   xmlns:inkscape="http://www.inkscape.org/namespaces/inkscape"
   width="685"
   height="56"
   viewBox="0 0 685 56"
   fill="none"
   version="1.1"
   id="svg12"
   sodipodi:docname="search01.svg"
   inkscape:version="0.92.3 (2405546, 2018-03-11)">
  <metadata
     id="metadata18">
    <rdf:RDF>
      <cc:Work
         rdf:about="">
        <dc:format>image/svg+xml</dc:format>
        <dc:type
           rdf:resource="http://purl.org/dc/dcmitype/StillImage" />
      </cc:Work>
    </rdf:RDF>
  </metadata>
  <defs
     id="defs16" />
  <sodipodi:namedview
     pagecolor="#ffffff"
     bordercolor="#666666"
     borderopacity="1"
     objecttolerance="10"
     gridtolerance="10"
     guidetolerance="10"
     inkscape:pageopacity="0"
     inkscape:pageshadow="2"
     inkscape:window-width="1920"
     inkscape:window-height="1018"
     id="namedview14"
     showgrid="false"
     inkscape:zoom="1.3504346"
     inkscape:cx="346.26816"
     inkscape:cy="41.003521"
     inkscape:window-x="-8"
     inkscape:window-y="-8"
     inkscape:window-maximized="1"
     inkscape:current-layer="svg12" />
  <rect
     x="1"
     y="1"
     width="683"
     height="54"
     rx="27"
     id="rect2"
     stroke-width="2"
     stroke="#0288D1"
     fill="white"
     inkscape:export-xdpi="28.029198"
     inkscape:export-ydpi="28.029198" />
  <path
     d="M665.366 27.3482H647"
     id="path4"
     stroke-linecap="round"
     stroke-width="3"
     stroke="#0288D1" />
  <path
     d="M659.143 19L667.491 27.3482L659.143 35.6964"
     id="path6"
     stroke-linejoin="round"
     stroke-linecap="round"
     stroke-width="3"
     stroke="#0288D1" />
  <path
     d="M657 50C669.15 50 679 40.1503 679 28C679 15.8497 669.15 6 657 6C644.85 6 635 15.8497 635 28C635 40.1503 644.85 50 657 50Z"
     id="path8"
     stroke-width="2"
     stroke="#0288D1" />
  <path
     d="M48.0176 30.5811C48.0176 31.7119 47.6074 32.5938 46.7871 33.2266C45.9668 33.8594 44.8535 34.1758 43.4473 34.1758C41.9238 34.1758 40.752 33.9795 39.9316 33.5869V32.1455C40.459 32.3682 41.0332 32.5439 41.6543 32.6729C42.2754 32.8018 42.8906 32.8662 43.5 32.8662C44.4961 32.8662 45.2461 32.6787 45.75 32.3037C46.2539 31.9229 46.5059 31.3955 46.5059 30.7217C46.5059 30.2764 46.415 29.9131 46.2334 29.6318C46.0576 29.3447 45.7588 29.0811 45.3369 28.8408C44.9209 28.6006 44.2852 28.3281 43.4297 28.0234C42.2344 27.5957 41.3789 27.0889 40.8633 26.5029C40.3535 25.917 40.0986 25.1523 40.0986 24.209C40.0986 23.2188 40.4707 22.4307 41.2148 21.8447C41.959 21.2588 42.9434 20.9658 44.168 20.9658C45.4453 20.9658 46.6201 21.2002 47.6924 21.6689L47.2266 22.9697C46.166 22.5244 45.1348 22.3018 44.1328 22.3018C43.3418 22.3018 42.7236 22.4717 42.2783 22.8115C41.833 23.1514 41.6104 23.623 41.6104 24.2266C41.6104 24.6719 41.6924 25.0381 41.8564 25.3252C42.0205 25.6064 42.2959 25.8672 42.6826 26.1074C43.0752 26.3418 43.6729 26.6025 44.4756 26.8896C45.8232 27.3701 46.749 27.8857 47.2529 28.4365C47.7627 28.9873 48.0176 29.7021 48.0176 30.5811ZM54.4951 34.1758C53.0713 34.1758 51.9463 33.7422 51.1201 32.875C50.2998 32.0078 49.8896 30.8037 49.8896 29.2627C49.8896 27.71 50.2705 26.4766 51.0322 25.5625C51.7998 24.6484 52.8281 24.1914 54.1172 24.1914C55.3242 24.1914 56.2793 24.5898 56.9824 25.3867C57.6855 26.1777 58.0371 27.2236 58.0371 28.5244V29.4473H51.4014C51.4307 30.5781 51.7148 31.4365 52.2539 32.0225C52.7988 32.6084 53.5635 32.9014 54.5479 32.9014C55.585 32.9014 56.6104 32.6846 57.624 32.251V33.5518C57.1084 33.7744 56.6191 33.9326 56.1562 34.0264C55.6992 34.126 55.1455 34.1758 54.4951 34.1758ZM54.0996 25.4131C53.3262 25.4131 52.708 25.665 52.2451 26.1689C51.7881 26.6729 51.5186 27.3701 51.4365 28.2607H56.4727C56.4727 27.3408 56.2676 26.6377 55.8574 26.1514C55.4473 25.6592 54.8613 25.4131 54.0996 25.4131ZM66.457 34L66.167 32.6289H66.0967C65.6162 33.2324 65.1357 33.6426 64.6553 33.8594C64.1807 34.0703 63.5859 34.1758 62.8711 34.1758C61.916 34.1758 61.166 33.9297 60.6211 33.4375C60.082 32.9453 59.8125 32.2451 59.8125 31.3369C59.8125 29.3916 61.3682 28.3721 64.4795 28.2783L66.1143 28.2256V27.6279C66.1143 26.8721 65.9502 26.3154 65.6221 25.958C65.2998 25.5947 64.7812 25.4131 64.0664 25.4131C63.2637 25.4131 62.3555 25.6592 61.3418 26.1514L60.8936 25.0352C61.3682 24.7773 61.8867 24.5752 62.4492 24.4287C63.0176 24.2822 63.5859 24.209 64.1543 24.209C65.3027 24.209 66.1523 24.4639 66.7031 24.9736C67.2598 25.4834 67.5381 26.3008 67.5381 27.4258V34H66.457ZM63.1611 32.9717C64.0693 32.9717 64.7812 32.7227 65.2969 32.2246C65.8184 31.7266 66.0791 31.0293 66.0791 30.1328V29.2627L64.6201 29.3242C63.46 29.3652 62.6221 29.5469 62.1064 29.8691C61.5967 30.1855 61.3418 30.6807 61.3418 31.3545C61.3418 31.8818 61.5 32.2832 61.8164 32.5586C62.1387 32.834 62.5869 32.9717 63.1611 32.9717ZM74.9473 24.1914C75.375 24.1914 75.7588 24.2266 76.0986 24.2969L75.8965 25.6504C75.498 25.5625 75.1465 25.5186 74.8418 25.5186C74.0625 25.5186 73.3945 25.835 72.8379 26.4678C72.2871 27.1006 72.0117 27.8887 72.0117 28.832V34H70.5527V24.3672H71.7568L71.9238 26.1514H71.9941C72.3516 25.5244 72.7822 25.041 73.2861 24.7012C73.79 24.3613 74.3438 24.1914 74.9473 24.1914ZM81.75 34.1758C80.3555 34.1758 79.2744 33.748 78.5068 32.8926C77.7451 32.0312 77.3643 30.8154 77.3643 29.2451C77.3643 27.6338 77.751 26.3887 78.5244 25.5098C79.3037 24.6309 80.4111 24.1914 81.8467 24.1914C82.3096 24.1914 82.7725 24.2412 83.2354 24.3408C83.6982 24.4404 84.0615 24.5576 84.3252 24.6924L83.877 25.9316C83.5547 25.8027 83.2031 25.6973 82.8223 25.6152C82.4414 25.5273 82.1045 25.4834 81.8115 25.4834C79.8545 25.4834 78.876 26.7314 78.876 29.2275C78.876 30.4111 79.1133 31.3193 79.5879 31.9521C80.0684 32.585 80.7773 32.9014 81.7148 32.9014C82.5176 32.9014 83.3408 32.7285 84.1846 32.3828V33.6748C83.54 34.0088 82.7285 34.1758 81.75 34.1758ZM93.0703 34V27.7686C93.0703 26.9834 92.8916 26.3975 92.5342 26.0107C92.1768 25.624 91.6172 25.4307 90.8555 25.4307C89.8418 25.4307 89.1006 25.7061 88.6318 26.2568C88.1689 26.8076 87.9375 27.71 87.9375 28.9639V34H86.4785V20.3242H87.9375V24.4639C87.9375 24.9619 87.9141 25.375 87.8672 25.7031H87.9551C88.2422 25.2402 88.6494 24.877 89.1768 24.6133C89.71 24.3438 90.3164 24.209 90.9961 24.209C92.1738 24.209 93.0557 24.4902 93.6416 25.0527C94.2334 25.6094 94.5293 26.4971 94.5293 27.7158V34H93.0703ZM106.553 25.501H104.101V34H102.642V25.501H100.919V24.8418L102.642 24.3145V23.7783C102.642 21.4111 103.676 20.2275 105.744 20.2275C106.254 20.2275 106.852 20.3301 107.537 20.5352L107.159 21.7041C106.597 21.5225 106.116 21.4316 105.718 21.4316C105.167 21.4316 104.76 21.6162 104.496 21.9854C104.232 22.3486 104.101 22.9346 104.101 23.7432V24.3672H106.553V25.501ZM116.625 29.1748C116.625 30.7451 116.229 31.9727 115.438 32.8574C114.647 33.7363 113.555 34.1758 112.16 34.1758C111.299 34.1758 110.534 33.9736 109.866 33.5693C109.198 33.165 108.683 32.585 108.319 31.8291C107.956 31.0732 107.774 30.1885 107.774 29.1748C107.774 27.6045 108.167 26.3828 108.952 25.5098C109.737 24.6309 110.827 24.1914 112.222 24.1914C113.569 24.1914 114.639 24.6396 115.43 25.5361C116.227 26.4326 116.625 27.6455 116.625 29.1748ZM109.286 29.1748C109.286 30.4053 109.532 31.3428 110.024 31.9873C110.517 32.6318 111.24 32.9541 112.195 32.9541C113.15 32.9541 113.874 32.6348 114.366 31.9961C114.864 31.3516 115.113 30.4111 115.113 29.1748C115.113 27.9502 114.864 27.0215 114.366 26.3887C113.874 25.75 113.145 25.4307 112.178 25.4307C111.223 25.4307 110.502 25.7441 110.016 26.3711C109.529 26.998 109.286 27.9326 109.286 29.1748ZM123.586 24.1914C124.014 24.1914 124.397 24.2266 124.737 24.2969L124.535 25.6504C124.137 25.5625 123.785 25.5186 123.48 25.5186C122.701 25.5186 122.033 25.835 121.477 26.4678C120.926 27.1006 120.65 27.8887 120.65 28.832V34H119.191V24.3672H120.396L120.562 26.1514H120.633C120.99 25.5244 121.421 25.041 121.925 24.7012C122.429 24.3613 122.982 24.1914 123.586 24.1914ZM137.139 34L136.849 32.6289H136.778C136.298 33.2324 135.817 33.6426 135.337 33.8594C134.862 34.0703 134.268 34.1758 133.553 34.1758C132.598 34.1758 131.848 33.9297 131.303 33.4375C130.764 32.9453 130.494 32.2451 130.494 31.3369C130.494 29.3916 132.05 28.3721 135.161 28.2783L136.796 28.2256V27.6279C136.796 26.8721 136.632 26.3154 136.304 25.958C135.981 25.5947 135.463 25.4131 134.748 25.4131C133.945 25.4131 133.037 25.6592 132.023 26.1514L131.575 25.0352C132.05 24.7773 132.568 24.5752 133.131 24.4287C133.699 24.2822 134.268 24.209 134.836 24.209C135.984 24.209 136.834 24.4639 137.385 24.9736C137.941 25.4834 138.22 26.3008 138.22 27.4258V34H137.139ZM133.843 32.9717C134.751 32.9717 135.463 32.7227 135.979 32.2246C136.5 31.7266 136.761 31.0293 136.761 30.1328V29.2627L135.302 29.3242C134.142 29.3652 133.304 29.5469 132.788 29.8691C132.278 30.1855 132.023 30.6807 132.023 31.3545C132.023 31.8818 132.182 32.2832 132.498 32.5586C132.82 32.834 133.269 32.9717 133.843 32.9717ZM147.826 34V27.7686C147.826 26.9834 147.647 26.3975 147.29 26.0107C146.933 25.624 146.373 25.4307 145.611 25.4307C144.604 25.4307 143.865 25.7031 143.396 26.248C142.928 26.793 142.693 27.6924 142.693 28.9463V34H141.234V24.3672H142.421L142.658 25.6855H142.729C143.027 25.2109 143.446 24.8447 143.985 24.5869C144.524 24.3232 145.125 24.1914 145.787 24.1914C146.947 24.1914 147.82 24.4727 148.406 25.0352C148.992 25.5918 149.285 26.4854 149.285 27.7158V34H147.826ZM150.762 24.3672H152.326L154.436 29.8604C154.898 31.1143 155.186 32.0195 155.297 32.5762H155.367C155.443 32.2773 155.602 31.7676 155.842 31.0469C156.088 30.3203 156.885 28.0938 158.232 24.3672H159.797L155.657 35.3359C155.247 36.4199 154.767 37.1875 154.216 37.6387C153.671 38.0957 153 38.3242 152.203 38.3242C151.758 38.3242 151.318 38.2744 150.885 38.1748V37.0059C151.207 37.0762 151.567 37.1113 151.966 37.1113C152.968 37.1113 153.683 36.5488 154.11 35.4238L154.646 34.0527L150.762 24.3672ZM165.844 24.209C167.109 24.209 168.091 24.6426 168.788 25.5098C169.491 26.3711 169.843 27.5928 169.843 29.1748C169.843 30.7568 169.488 31.9873 168.779 32.8662C168.076 33.7393 167.098 34.1758 165.844 34.1758C165.217 34.1758 164.643 34.0615 164.121 33.833C163.605 33.5986 163.172 33.2412 162.82 32.7607H162.715L162.407 34H161.361V20.3242H162.82V23.6465C162.82 24.3906 162.797 25.0586 162.75 25.6504H162.82C163.5 24.6895 164.508 24.209 165.844 24.209ZM165.633 25.4307C164.637 25.4307 163.919 25.7178 163.479 26.292C163.04 26.8604 162.82 27.8213 162.82 29.1748C162.82 30.5283 163.046 31.498 163.497 32.084C163.948 32.6641 164.672 32.9541 165.668 32.9541C166.564 32.9541 167.232 32.6289 167.672 31.9785C168.111 31.3223 168.331 30.3818 168.331 29.1572C168.331 27.9033 168.111 26.9688 167.672 26.3535C167.232 25.7383 166.553 25.4307 165.633 25.4307ZM180.715 29.1748C180.715 30.7451 180.319 31.9727 179.528 32.8574C178.737 33.7363 177.645 34.1758 176.25 34.1758C175.389 34.1758 174.624 33.9736 173.956 33.5693C173.288 33.165 172.772 32.585 172.409 31.8291C172.046 31.0732 171.864 30.1885 171.864 29.1748C171.864 27.6045 172.257 26.3828 173.042 25.5098C173.827 24.6309 174.917 24.1914 176.312 24.1914C177.659 24.1914 178.729 24.6396 179.52 25.5361C180.316 26.4326 180.715 27.6455 180.715 29.1748ZM173.376 29.1748C173.376 30.4053 173.622 31.3428 174.114 31.9873C174.606 32.6318 175.33 32.9541 176.285 32.9541C177.24 32.9541 177.964 32.6348 178.456 31.9961C178.954 31.3516 179.203 30.4111 179.203 29.1748C179.203 27.9502 178.954 27.0215 178.456 26.3887C177.964 25.75 177.234 25.4307 176.268 25.4307C175.312 25.4307 174.592 25.7441 174.105 26.3711C173.619 26.998 173.376 27.9326 173.376 29.1748ZM189.838 32.708H189.759C189.085 33.6865 188.077 34.1758 186.735 34.1758C185.476 34.1758 184.494 33.7451 183.791 32.8838C183.094 32.0225 182.745 30.7979 182.745 29.21C182.745 27.6221 183.097 26.3887 183.8 25.5098C184.503 24.6309 185.481 24.1914 186.735 24.1914C188.042 24.1914 189.044 24.666 189.741 25.6152H189.855L189.794 24.9209L189.759 24.2441V20.3242H191.218V34H190.031L189.838 32.708ZM186.92 32.9541C187.916 32.9541 188.637 32.6846 189.082 32.1455C189.533 31.6006 189.759 30.7246 189.759 29.5176V29.21C189.759 27.8447 189.53 26.8721 189.073 26.292C188.622 25.7061 187.898 25.4131 186.902 25.4131C186.047 25.4131 185.391 25.7471 184.934 26.415C184.482 27.0771 184.257 28.0146 184.257 29.2275C184.257 30.458 184.482 31.3867 184.934 32.0137C185.385 32.6406 186.047 32.9541 186.92 32.9541ZM192.791 24.3672H194.355L196.465 29.8604C196.928 31.1143 197.215 32.0195 197.326 32.5762H197.396C197.473 32.2773 197.631 31.7676 197.871 31.0469C198.117 30.3203 198.914 28.0938 200.262 24.3672H201.826L197.687 35.3359C197.276 36.4199 196.796 37.1875 196.245 37.6387C195.7 38.0957 195.029 38.3242 194.232 38.3242C193.787 38.3242 193.348 38.2744 192.914 38.1748V37.0059C193.236 37.0762 193.597 37.1113 193.995 37.1113C194.997 37.1113 195.712 36.5488 196.14 35.4238L196.676 34.0527L192.791 24.3672Z"
     id="path10"
     fill="#919191" />
</svg>
