<svg width="163" height="19" viewBox="0 0 163 19" fill="none" xmlns="http://www.w3.org/2000/svg">
<path d="M9.01758 10.5811C9.01758 11.7119 8.60742 12.5938 7.78711 13.2266C6.9668 13.8594 5.85352 14.1758 4.44727 14.1758C2.92383 14.1758 1.75195 13.9795 0.931641 13.5869V12.1455C1.45898 12.3682 2.0332 12.5439 2.6543 12.6729C3.27539 12.8018 3.89062 12.8662 4.5 12.8662C5.49609 12.8662 6.24609 12.6787 6.75 12.3037C7.25391 11.9229 7.50586 11.3955 7.50586 10.7217C7.50586 10.2764 7.41504 9.91309 7.2334 9.63184C7.05762 9.34473 6.75879 9.08105 6.33691 8.84082C5.9209 8.60059 5.28516 8.32812 4.42969 8.02344C3.23438 7.5957 2.37891 7.08887 1.86328 6.50293C1.35352 5.91699 1.09863 5.15234 1.09863 4.20898C1.09863 3.21875 1.4707 2.43066 2.21484 1.84473C2.95898 1.25879 3.94336 0.96582 5.16797 0.96582C6.44531 0.96582 7.62012 1.2002 8.69238 1.66895L8.22656 2.96973C7.16602 2.52441 6.13477 2.30176 5.13281 2.30176C4.3418 2.30176 3.72363 2.47168 3.27832 2.81152C2.83301 3.15137 2.61035 3.62305 2.61035 4.22656C2.61035 4.67188 2.69238 5.03809 2.85645 5.3252C3.02051 5.60645 3.2959 5.86719 3.68262 6.10742C4.0752 6.3418 4.67285 6.60254 5.47559 6.88965C6.82324 7.37012 7.74902 7.88574 8.25293 8.43652C8.7627 8.9873 9.01758 9.70215 9.01758 10.5811ZM15.4951 14.1758C14.0713 14.1758 12.9463 13.7422 12.1201 12.875C11.2998 12.0078 10.8896 10.8037 10.8896 9.2627C10.8896 7.70996 11.2705 6.47656 12.0322 5.5625C12.7998 4.64844 13.8281 4.19141 15.1172 4.19141C16.3242 4.19141 17.2793 4.58984 17.9824 5.38672C18.6855 6.17773 19.0371 7.22363 19.0371 8.52441V9.44727H12.4014C12.4307 10.5781 12.7148 11.4365 13.2539 12.0225C13.7988 12.6084 14.5635 12.9014 15.5479 12.9014C16.585 12.9014 17.6104 12.6846 18.624 12.251V13.5518C18.1084 13.7744 17.6191 13.9326 17.1562 14.0264C16.6992 14.126 16.1455 14.1758 15.4951 14.1758ZM15.0996 5.41309C14.3262 5.41309 13.708 5.66504 13.2451 6.16895C12.7881 6.67285 12.5186 7.37012 12.4365 8.26074H17.4727C17.4727 7.34082 17.2676 6.6377 16.8574 6.15137C16.4473 5.65918 15.8613 5.41309 15.0996 5.41309ZM27.457 14L27.167 12.6289H27.0967C26.6162 13.2324 26.1357 13.6426 25.6553 13.8594C25.1807 14.0703 24.5859 14.1758 23.8711 14.1758C22.916 14.1758 22.166 13.9297 21.6211 13.4375C21.082 12.9453 20.8125 12.2451 20.8125 11.3369C20.8125 9.3916 22.3682 8.37207 25.4795 8.27832L27.1143 8.22559V7.62793C27.1143 6.87207 26.9502 6.31543 26.6221 5.95801C26.2998 5.59473 25.7812 5.41309 25.0664 5.41309C24.2637 5.41309 23.3555 5.65918 22.3418 6.15137L21.8936 5.03516C22.3682 4.77734 22.8867 4.5752 23.4492 4.42871C24.0176 4.28223 24.5859 4.20898 25.1543 4.20898C26.3027 4.20898 27.1523 4.46387 27.7031 4.97363C28.2598 5.4834 28.5381 6.30078 28.5381 7.42578V14H27.457ZM24.1611 12.9717C25.0693 12.9717 25.7812 12.7227 26.2969 12.2246C26.8184 11.7266 27.0791 11.0293 27.0791 10.1328V9.2627L25.6201 9.32422C24.46 9.36523 23.6221 9.54688 23.1064 9.86914C22.5967 10.1855 22.3418 10.6807 22.3418 11.3545C22.3418 11.8818 22.5 12.2832 22.8164 12.5586C23.1387 12.834 23.5869 12.9717 24.1611 12.9717ZM35.9473 4.19141C36.375 4.19141 36.7588 4.22656 37.0986 4.29688L36.8965 5.65039C36.498 5.5625 36.1465 5.51855 35.8418 5.51855C35.0625 5.51855 34.3945 5.83496 33.8379 6.46777C33.2871 7.10059 33.0117 7.88867 33.0117 8.83203V14H31.5527V4.36719H32.7568L32.9238 6.15137H32.9941C33.3516 5.52441 33.7822 5.04102 34.2861 4.70117C34.79 4.36133 35.3438 4.19141 35.9473 4.19141ZM42.75 14.1758C41.3555 14.1758 40.2744 13.748 39.5068 12.8926C38.7451 12.0312 38.3643 10.8154 38.3643 9.24512C38.3643 7.63379 38.751 6.38867 39.5244 5.50977C40.3037 4.63086 41.4111 4.19141 42.8467 4.19141C43.3096 4.19141 43.7725 4.24121 44.2354 4.34082C44.6982 4.44043 45.0615 4.55762 45.3252 4.69238L44.877 5.93164C44.5547 5.80273 44.2031 5.69727 43.8223 5.61523C43.4414 5.52734 43.1045 5.4834 42.8115 5.4834C40.8545 5.4834 39.876 6.73145 39.876 9.22754C39.876 10.4111 40.1133 11.3193 40.5879 11.9521C41.0684 12.585 41.7773 12.9014 42.7148 12.9014C43.5176 12.9014 44.3408 12.7285 45.1846 12.3828V13.6748C44.54 14.0088 43.7285 14.1758 42.75 14.1758ZM54.0703 14V7.76855C54.0703 6.9834 53.8916 6.39746 53.5342 6.01074C53.1768 5.62402 52.6172 5.43066 51.8555 5.43066C50.8418 5.43066 50.1006 5.70605 49.6318 6.25684C49.1689 6.80762 48.9375 7.70996 48.9375 8.96387V14H47.4785V0.324219H48.9375V4.46387C48.9375 4.96191 48.9141 5.375 48.8672 5.70312H48.9551C49.2422 5.24023 49.6494 4.87695 50.1768 4.61328C50.71 4.34375 51.3164 4.20898 51.9961 4.20898C53.1738 4.20898 54.0557 4.49023 54.6416 5.05273C55.2334 5.60938 55.5293 6.49707 55.5293 7.71582V14H54.0703ZM67.5527 5.50098H65.1006V14H63.6416V5.50098H61.9189V4.8418L63.6416 4.31445V3.77832C63.6416 1.41113 64.6758 0.227539 66.7441 0.227539C67.2539 0.227539 67.8516 0.330078 68.5371 0.535156L68.1592 1.7041C67.5967 1.52246 67.1162 1.43164 66.7178 1.43164C66.167 1.43164 65.7598 1.61621 65.4961 1.98535C65.2324 2.34863 65.1006 2.93457 65.1006 3.74316V4.36719H67.5527V5.50098ZM77.625 9.1748C77.625 10.7451 77.2295 11.9727 76.4385 12.8574C75.6475 13.7363 74.5547 14.1758 73.1602 14.1758C72.2988 14.1758 71.5342 13.9736 70.8662 13.5693C70.1982 13.165 69.6826 12.585 69.3193 11.8291C68.9561 11.0732 68.7744 10.1885 68.7744 9.1748C68.7744 7.60449 69.167 6.38281 69.9521 5.50977C70.7373 4.63086 71.8271 4.19141 73.2217 4.19141C74.5693 4.19141 75.6387 4.63965 76.4297 5.53613C77.2266 6.43262 77.625 7.64551 77.625 9.1748ZM70.2861 9.1748C70.2861 10.4053 70.5322 11.3428 71.0244 11.9873C71.5166 12.6318 72.2402 12.9541 73.1953 12.9541C74.1504 12.9541 74.874 12.6348 75.3662 11.9961C75.8643 11.3516 76.1133 10.4111 76.1133 9.1748C76.1133 7.9502 75.8643 7.02148 75.3662 6.38867C74.874 5.75 74.1445 5.43066 73.1777 5.43066C72.2227 5.43066 71.502 5.74414 71.0156 6.37109C70.5293 6.99805 70.2861 7.93262 70.2861 9.1748ZM84.5859 4.19141C85.0137 4.19141 85.3975 4.22656 85.7373 4.29688L85.5352 5.65039C85.1367 5.5625 84.7852 5.51855 84.4805 5.51855C83.7012 5.51855 83.0332 5.83496 82.4766 6.46777C81.9258 7.10059 81.6504 7.88867 81.6504 8.83203V14H80.1914V4.36719H81.3955L81.5625 6.15137H81.6328C81.9902 5.52441 82.4209 5.04102 82.9248 4.70117C83.4287 4.36133 83.9824 4.19141 84.5859 4.19141ZM98.1387 14L97.8486 12.6289H97.7783C97.2979 13.2324 96.8174 13.6426 96.3369 13.8594C95.8623 14.0703 95.2676 14.1758 94.5527 14.1758C93.5977 14.1758 92.8477 13.9297 92.3027 13.4375C91.7637 12.9453 91.4941 12.2451 91.4941 11.3369C91.4941 9.3916 93.0498 8.37207 96.1611 8.27832L97.7959 8.22559V7.62793C97.7959 6.87207 97.6318 6.31543 97.3037 5.95801C96.9814 5.59473 96.4629 5.41309 95.748 5.41309C94.9453 5.41309 94.0371 5.65918 93.0234 6.15137L92.5752 5.03516C93.0498 4.77734 93.5684 4.5752 94.1309 4.42871C94.6992 4.28223 95.2676 4.20898 95.8359 4.20898C96.9844 4.20898 97.834 4.46387 98.3848 4.97363C98.9414 5.4834 99.2197 6.30078 99.2197 7.42578V14H98.1387ZM94.8428 12.9717C95.751 12.9717 96.4629 12.7227 96.9785 12.2246C97.5 11.7266 97.7607 11.0293 97.7607 10.1328V9.2627L96.3018 9.32422C95.1416 9.36523 94.3037 9.54688 93.7881 9.86914C93.2783 10.1855 93.0234 10.6807 93.0234 11.3545C93.0234 11.8818 93.1816 12.2832 93.498 12.5586C93.8203 12.834 94.2686 12.9717 94.8428 12.9717ZM108.826 14V7.76855C108.826 6.9834 108.647 6.39746 108.29 6.01074C107.933 5.62402 107.373 5.43066 106.611 5.43066C105.604 5.43066 104.865 5.70312 104.396 6.24805C103.928 6.79297 103.693 7.69238 103.693 8.94629V14H102.234V4.36719H103.421L103.658 5.68555H103.729C104.027 5.21094 104.446 4.84473 104.985 4.58691C105.524 4.32324 106.125 4.19141 106.787 4.19141C107.947 4.19141 108.82 4.47266 109.406 5.03516C109.992 5.5918 110.285 6.48535 110.285 7.71582V14H108.826ZM111.762 4.36719H113.326L115.436 9.86035C115.898 11.1143 116.186 12.0195 116.297 12.5762H116.367C116.443 12.2773 116.602 11.7676 116.842 11.0469C117.088 10.3203 117.885 8.09375 119.232 4.36719H120.797L116.657 15.3359C116.247 16.4199 115.767 17.1875 115.216 17.6387C114.671 18.0957 114 18.3242 113.203 18.3242C112.758 18.3242 112.318 18.2744 111.885 18.1748V17.0059C112.207 17.0762 112.567 17.1113 112.966 17.1113C113.968 17.1113 114.683 16.5488 115.11 15.4238L115.646 14.0527L111.762 4.36719ZM126.844 4.20898C128.109 4.20898 129.091 4.64258 129.788 5.50977C130.491 6.37109 130.843 7.59277 130.843 9.1748C130.843 10.7568 130.488 11.9873 129.779 12.8662C129.076 13.7393 128.098 14.1758 126.844 14.1758C126.217 14.1758 125.643 14.0615 125.121 13.833C124.605 13.5986 124.172 13.2412 123.82 12.7607H123.715L123.407 14H122.361V0.324219H123.82V3.64648C123.82 4.39062 123.797 5.05859 123.75 5.65039H123.82C124.5 4.68945 125.508 4.20898 126.844 4.20898ZM126.633 5.43066C125.637 5.43066 124.919 5.71777 124.479 6.29199C124.04 6.86035 123.82 7.82129 123.82 9.1748C123.82 10.5283 124.046 11.498 124.497 12.084C124.948 12.6641 125.672 12.9541 126.668 12.9541C127.564 12.9541 128.232 12.6289 128.672 11.9785C129.111 11.3223 129.331 10.3818 129.331 9.15723C129.331 7.90332 129.111 6.96875 128.672 6.35352C128.232 5.73828 127.553 5.43066 126.633 5.43066ZM141.715 9.1748C141.715 10.7451 141.319 11.9727 140.528 12.8574C139.737 13.7363 138.645 14.1758 137.25 14.1758C136.389 14.1758 135.624 13.9736 134.956 13.5693C134.288 13.165 133.772 12.585 133.409 11.8291C133.046 11.0732 132.864 10.1885 132.864 9.1748C132.864 7.60449 133.257 6.38281 134.042 5.50977C134.827 4.63086 135.917 4.19141 137.312 4.19141C138.659 4.19141 139.729 4.63965 140.52 5.53613C141.316 6.43262 141.715 7.64551 141.715 9.1748ZM134.376 9.1748C134.376 10.4053 134.622 11.3428 135.114 11.9873C135.606 12.6318 136.33 12.9541 137.285 12.9541C138.24 12.9541 138.964 12.6348 139.456 11.9961C139.954 11.3516 140.203 10.4111 140.203 9.1748C140.203 7.9502 139.954 7.02148 139.456 6.38867C138.964 5.75 138.234 5.43066 137.268 5.43066C136.312 5.43066 135.592 5.74414 135.105 6.37109C134.619 6.99805 134.376 7.93262 134.376 9.1748ZM150.838 12.708H150.759C150.085 13.6865 149.077 14.1758 147.735 14.1758C146.476 14.1758 145.494 13.7451 144.791 12.8838C144.094 12.0225 143.745 10.7979 143.745 9.20996C143.745 7.62207 144.097 6.38867 144.8 5.50977C145.503 4.63086 146.481 4.19141 147.735 4.19141C149.042 4.19141 150.044 4.66602 150.741 5.61523H150.855L150.794 4.9209L150.759 4.24414V0.324219H152.218V14H151.031L150.838 12.708ZM147.92 12.9541C148.916 12.9541 149.637 12.6846 150.082 12.1455C150.533 11.6006 150.759 10.7246 150.759 9.51758V9.20996C150.759 7.84473 150.53 6.87207 150.073 6.29199C149.622 5.70605 148.898 5.41309 147.902 5.41309C147.047 5.41309 146.391 5.74707 145.934 6.41504C145.482 7.07715 145.257 8.01465 145.257 9.22754C145.257 10.458 145.482 11.3867 145.934 12.0137C146.385 12.6406 147.047 12.9541 147.92 12.9541ZM153.791 4.36719H155.355L157.465 9.86035C157.928 11.1143 158.215 12.0195 158.326 12.5762H158.396C158.473 12.2773 158.631 11.7676 158.871 11.0469C159.117 10.3203 159.914 8.09375 161.262 4.36719H162.826L158.687 15.3359C158.276 16.4199 157.796 17.1875 157.245 17.6387C156.7 18.0957 156.029 18.3242 155.232 18.3242C154.787 18.3242 154.348 18.2744 153.914 18.1748V17.0059C154.236 17.0762 154.597 17.1113 154.995 17.1113C155.997 17.1113 156.712 16.5488 157.14 15.4238L157.676 14.0527L153.791 4.36719Z" fill="#919191"/>
</svg>
