<svg width="98" height="46" viewBox="0 0 98 46" fill="none" xmlns="http://www.w3.org/2000/svg">
<path d="M0.356201 23.1106C0.356201 10.4692 10.6041 0.221283 23.2456 0.221283H97.1265V46H23.2456C10.6041 46 0.356201 35.7521 0.356201 23.1106V23.1106Z" fill="#00B4CD"/>
<path d="M32.3193 27V17.0059H33.9531V25.5986H38.1846V27H32.3193ZM46.4424 23.2061C46.4424 24.4411 46.1257 25.4049 45.4922 26.0977C44.8587 26.7904 43.9769 27.1367 42.8467 27.1367C42.1403 27.1367 41.516 26.9772 40.9736 26.6582C40.4313 26.3392 40.0143 25.8812 39.7227 25.2842C39.431 24.6872 39.2852 23.9945 39.2852 23.2061C39.2852 21.9801 39.5996 21.0231 40.2285 20.335C40.8574 19.6468 41.7438 19.3027 42.8877 19.3027C43.9814 19.3027 44.8473 19.6559 45.4854 20.3623C46.1234 21.0641 46.4424 22.012 46.4424 23.2061ZM40.9395 23.2061C40.9395 24.9515 41.5843 25.8242 42.874 25.8242C44.1501 25.8242 44.7881 24.9515 44.7881 23.2061C44.7881 21.4788 44.1455 20.6152 42.8604 20.6152C42.1859 20.6152 41.696 20.8385 41.3906 21.2852C41.0898 21.7318 40.9395 22.3721 40.9395 23.2061ZM54.6797 19.4395V20.3213L53.3877 20.5605C53.5062 20.7201 53.6042 20.916 53.6816 21.1484C53.7591 21.3809 53.7979 21.627 53.7979 21.8867C53.7979 22.666 53.529 23.279 52.9912 23.7256C52.4535 24.1722 51.7129 24.3955 50.7695 24.3955C50.528 24.3955 50.3092 24.3773 50.1133 24.3408C49.7669 24.555 49.5938 24.8057 49.5938 25.0928C49.5938 25.266 49.6735 25.3958 49.833 25.4824C49.9971 25.569 50.2956 25.6123 50.7285 25.6123H52.0479C52.8818 25.6123 53.5153 25.79 53.9482 26.1455C54.3812 26.501 54.5977 27.0137 54.5977 27.6836C54.5977 28.5404 54.2445 29.2012 53.5381 29.666C52.8317 30.1309 51.8109 30.3633 50.4756 30.3633C49.4456 30.3633 48.6595 30.181 48.1172 29.8164C47.5749 29.4518 47.3037 28.9323 47.3037 28.2578C47.3037 27.793 47.4495 27.401 47.7412 27.082C48.0374 26.7676 48.4499 26.5488 48.9785 26.4258C48.7643 26.3346 48.5866 26.1888 48.4453 25.9883C48.3086 25.7832 48.2402 25.569 48.2402 25.3457C48.2402 25.0632 48.32 24.8239 48.4795 24.6279C48.639 24.432 48.876 24.2383 49.1904 24.0469C48.7985 23.8783 48.4795 23.6048 48.2334 23.2266C47.9919 22.8438 47.8711 22.3971 47.8711 21.8867C47.8711 21.0664 48.1286 20.4307 48.6436 19.9795C49.1631 19.5283 49.9014 19.3027 50.8584 19.3027C51.0726 19.3027 51.2959 19.3187 51.5283 19.3506C51.7653 19.3779 51.943 19.4076 52.0615 19.4395H54.6797ZM48.7393 28.1758C48.7393 28.5221 48.8942 28.7887 49.2041 28.9756C49.5186 29.1624 49.9583 29.2559 50.5234 29.2559C51.3984 29.2559 52.0501 29.1305 52.4785 28.8799C52.9069 28.6292 53.1211 28.2966 53.1211 27.8818C53.1211 27.5537 53.0026 27.319 52.7656 27.1777C52.5332 27.041 52.098 26.9727 51.46 26.9727H50.2432C49.7829 26.9727 49.416 27.0798 49.1426 27.2939C48.8737 27.5127 48.7393 27.8066 48.7393 28.1758ZM49.4297 21.8867C49.4297 22.3607 49.5505 22.7253 49.792 22.9805C50.0381 23.2357 50.389 23.3633 50.8447 23.3633C51.7744 23.3633 52.2393 22.8665 52.2393 21.873C52.2393 21.3809 52.123 21.0026 51.8906 20.7383C51.6628 20.4694 51.3141 20.335 50.8447 20.335C50.3799 20.335 50.0267 20.4671 49.7852 20.7314C49.5482 20.9958 49.4297 21.3809 49.4297 21.8867ZM57.6943 27H56.0879V19.4395H57.6943V27ZM55.9922 17.4365C55.9922 17.1494 56.0697 16.9284 56.2246 16.7734C56.3841 16.6185 56.6097 16.541 56.9014 16.541C57.1839 16.541 57.4027 16.6185 57.5576 16.7734C57.7171 16.9284 57.7969 17.1494 57.7969 17.4365C57.7969 17.71 57.7171 17.9264 57.5576 18.0859C57.4027 18.2409 57.1839 18.3184 56.9014 18.3184C56.6097 18.3184 56.3841 18.2409 56.2246 18.0859C56.0697 17.9264 55.9922 17.71 55.9922 17.4365ZM66.6494 27H65.0361V22.3516C65.0361 21.7682 64.9176 21.333 64.6807 21.0459C64.4482 20.7588 64.0768 20.6152 63.5664 20.6152C62.8874 20.6152 62.3906 20.8158 62.0762 21.2168C61.7617 21.6178 61.6045 22.29 61.6045 23.2334V27H59.998V19.4395H61.2559L61.4814 20.4307H61.5635C61.7913 20.0706 62.1149 19.7926 62.5342 19.5967C62.9535 19.4007 63.4183 19.3027 63.9287 19.3027C65.7425 19.3027 66.6494 20.2256 66.6494 22.0713V27Z" fill="white"/>
</svg>
