<?xml version="1.0" encoding="UTF-8" standalone="no"?>
<svg
   xmlns:dc="http://purl.org/dc/elements/1.1/"
   xmlns:cc="http://creativecommons.org/ns#"
   xmlns:rdf="http://www.w3.org/1999/02/22-rdf-syntax-ns#"
   xmlns:svg="http://www.w3.org/2000/svg"
   xmlns="http://www.w3.org/2000/svg"
   xmlns:sodipodi="http://sodipodi.sourceforge.net/DTD/sodipodi-0.dtd"
   xmlns:inkscape="http://www.inkscape.org/namespaces/inkscape"
   width="98"
   height="46"
   viewBox="0 0 98 46"
   fill="none"
   version="1.1"
   id="svg6"
   sodipodi:docname="signin11.svg"
   inkscape:version="0.92.3 (2405546, 2018-03-11)">
  <metadata
     id="metadata12">
    <rdf:RDF>
      <cc:Work
         rdf:about="">
        <dc:format>image/svg+xml</dc:format>
        <dc:type
           rdf:resource="http://purl.org/dc/dcmitype/StillImage" />
      </cc:Work>
    </rdf:RDF>
  </metadata>
  <defs
     id="defs10" />
  <sodipodi:namedview
     pagecolor="#ffffff"
     bordercolor="#666666"
     borderopacity="1"
     objecttolerance="10"
     gridtolerance="10"
     guidetolerance="10"
     inkscape:pageopacity="0"
     inkscape:pageshadow="2"
     inkscape:window-width="1920"
     inkscape:window-height="1018"
     id="namedview8"
     showgrid="false"
     inkscape:zoom="2.8979592"
     inkscape:cx="49"
     inkscape:cy="23"
     inkscape:window-x="-8"
     inkscape:window-y="-8"
     inkscape:window-maximized="1"
     inkscape:current-layer="svg6" />
  <path
     d="m 0.356201,15.864134 c 0,-8.6392938 6.5570875,-15.642851 14.645713,-15.642851 H 62.274388 V 31.507042 H 15.001914 c -8.0886255,0 -14.645713,-7.003546 -14.645713,-15.642908 z"
     id="path2"
     inkscape:connector-curvature="0"
     style="fill:#00b4cd;stroke-width:0.66127121" />
  <path
     d="m 20.807695,18.5222 v -6.830096 h 1.045382 v 5.872361 h 2.707512 V 18.5222 Z m 9.036623,-2.5928 c 0,0.844015 -0.20264,1.502688 -0.607983,1.976157 -0.405343,0.473399 -0.96956,0.710065 -1.692716,0.710065 -0.451988,0 -0.851444,-0.109004 -1.198496,-0.327013 -0.34699,-0.218008 -0.613806,-0.531011 -0.800386,-0.939009 -0.186643,-0.407997 -0.279933,-0.881397 -0.279933,-1.4202 0,-0.837864 0.201168,-1.49189 0.603569,-1.962146 0.402399,-0.470325 0.969559,-0.705487 1.70148,-0.705487 0.699801,0 1.253844,0.241381 1.662131,0.724144 0.408222,0.479619 0.612334,1.127426 0.612334,1.943489 z m -3.521015,0 c 0,1.192829 0.412574,1.789243 1.237784,1.789243 0.81651,0 1.224732,-0.596414 1.224732,-1.789243 0,-1.180458 -0.411166,-1.770654 -1.233433,-1.770654 -0.431577,0 -0.745038,0.152606 -0.940447,0.457886 -0.192467,0.305212 -0.288636,0.742802 -0.288636,1.312768 z m 8.791626,-2.574142 v 0.602634 l -0.826682,0.163471 c 0.07583,0.109073 0.138526,0.242954 0.188051,0.401779 0.04958,0.158893 0.07442,0.327081 0.07442,0.504563 0,0.532584 -0.172054,0.951515 -0.516165,1.256728 -0.344045,0.305212 -0.817915,0.457819 -1.421547,0.457819 -0.154523,0 -0.294522,-0.01244 -0.419868,-0.03739 -0.221643,0.146388 -0.332401,0.31772 -0.332401,0.513927 0,0.118367 0.051,0.207075 0.153052,0.266258 0.104999,0.05918 0.295994,0.08877 0.572983,0.08877 h 0.844214 c 0.533568,0 0.938911,0.121443 1.215901,0.364395 0.277054,0.242954 0.415581,0.59334 0.415581,1.051158 0,0.585548 -0.225994,1.037147 -0.677982,1.354798 -0.451988,0.317718 -1.105144,0.476543 -1.959531,0.476543 -0.659042,0 -1.162026,-0.124586 -1.509016,-0.373759 -0.346989,-0.249172 -0.520515,-0.604204 -0.520515,-1.065167 0,-0.31765 0.09329,-0.585548 0.279933,-0.803556 0.189523,-0.214865 0.453459,-0.364396 0.791682,-0.448455 -0.137055,-0.06233 -0.250755,-0.161969 -0.341166,-0.298994 -0.08746,-0.140168 -0.131232,-0.286555 -0.131232,-0.439161 0,-0.193064 0.05105,-0.356605 0.153115,-0.490554 0.102056,-0.13388 0.2537,-0.266257 0.454868,-0.397062 -0.250757,-0.115223 -0.454868,-0.302137 -0.612335,-0.560603 -0.154523,-0.261612 -0.231816,-0.566891 -0.231816,-0.915706 0,-0.560603 0.164761,-0.995049 0.494281,-1.303405 0.332401,-0.308355 0.8048,-0.462533 1.417134,-0.462533 0.137055,0 0.279933,0.01094 0.428634,0.03274 0.151643,0.01866 0.265344,0.03895 0.341166,0.06076 z m -3.800947,5.970498 c 0,0.236667 0.09912,0.418865 0.297401,0.546594 0.201232,0.127662 0.482572,0.19156 0.84415,0.19156 0.559866,0 0.976854,-0.0857 1.250965,-0.256962 0.274111,-0.171332 0.411166,-0.398635 0.411166,-0.682114 0,-0.224228 -0.07583,-0.384626 -0.227466,-0.481192 -0.1487,-0.09342 -0.427162,-0.140099 -0.835385,-0.140099 h -0.778565 c -0.294521,0 -0.529281,0.07319 -0.704216,0.219512 -0.172054,0.149531 -0.25805,0.350385 -0.25805,0.602701 z m 0.44175,-4.298051 c 0,0.323938 0.07729,0.573111 0.231817,0.747518 0.157467,0.174406 0.381988,0.26161 0.673568,0.26161 0.594864,0 0.89233,-0.33952 0.89233,-1.01849 0,-0.336308 -0.07442,-0.594842 -0.223115,-0.775469 -0.145757,-0.183769 -0.368871,-0.27562 -0.669215,-0.27562 -0.297402,0 -0.523396,0.09028 -0.677918,0.270905 -0.151644,0.180694 -0.227467,0.443876 -0.227467,0.789546 z m 5.28808,3.494495 h -1.02785 v -5.166942 h 1.02785 z m -1.089084,-6.535818 c 0,-0.196208 0.04959,-0.347243 0.1487,-0.453171 0.102057,-0.105861 0.246406,-0.158825 0.433049,-0.158825 0.180757,0 0.320756,0.05296 0.419868,0.158825 0.102055,0.105928 0.153116,0.256963 0.153116,0.453171 0,0.186913 -0.05106,0.334804 -0.153116,0.443808 -0.09911,0.105929 -0.239111,0.158893 -0.419868,0.158893 -0.186643,0 -0.330992,-0.05296 -0.433049,-0.158893 -0.09911,-0.109004 -0.1487,-0.256895 -0.1487,-0.443808 z m 6.818978,6.535818 h -1.032265 v -3.176776 c 0,-0.398703 -0.07582,-0.696124 -0.227402,-0.892332 -0.148764,-0.196208 -0.386403,-0.294346 -0.712981,-0.294346 -0.434456,0 -0.752333,0.137093 -0.953501,0.411141 -0.201231,0.274049 -0.301816,0.733439 -0.301816,1.37817 V 18.5222 h -1.027913 v -5.166942 h 0.804864 l 0.144284,0.677398 h 0.05253 c 0.145756,-0.246096 0.35281,-0.436085 0.621098,-0.569966 0.268288,-0.133949 0.56569,-0.200923 0.892268,-0.200923 1.160554,0 1.740831,0.630721 1.740831,1.892096 z"
     id="path4"
     inkscape:connector-curvature="0"
     style="fill:#ffffff;stroke-width:0.66127121" />
</svg>
