<svg width="98" height="46" viewBox="0 0 98 46" fill="none" xmlns="http://www.w3.org/2000/svg">
<path d="M0.810059 0.221283H74.6907C87.3321 0.221283 97.58 10.4692 97.58 23.1106V23.1106C97.58 35.7521 87.3321 46 74.6906 46H0.810059V0.221283Z" fill="#0079D4"/>
<path d="M33.082 24.2861C33.082 25.1748 32.7607 25.8721 32.1182 26.3779C31.4756 26.8838 30.5892 27.1367 29.459 27.1367C28.3288 27.1367 27.4036 26.9613 26.6836 26.6104V25.0654C27.1393 25.2796 27.6224 25.4482 28.1328 25.5713C28.6478 25.6943 29.1263 25.7559 29.5684 25.7559C30.2155 25.7559 30.6917 25.6328 30.9971 25.3867C31.307 25.1406 31.4619 24.8102 31.4619 24.3955C31.4619 24.0218 31.3206 23.7051 31.0381 23.4453C30.7555 23.1855 30.1722 22.8779 29.2881 22.5225C28.3766 22.1533 27.734 21.7318 27.3604 21.2578C26.9867 20.7839 26.7998 20.2142 26.7998 19.5488C26.7998 18.7148 27.096 18.0586 27.6885 17.5801C28.2809 17.1016 29.0762 16.8623 30.0742 16.8623C31.0312 16.8623 31.9837 17.0719 32.9316 17.4912L32.4121 18.8242C31.5234 18.4505 30.7305 18.2637 30.0332 18.2637C29.5046 18.2637 29.1035 18.3799 28.8301 18.6123C28.5566 18.8402 28.4199 19.1432 28.4199 19.5215C28.4199 19.7813 28.4746 20.0046 28.584 20.1914C28.6934 20.3737 28.8734 20.5469 29.124 20.7109C29.3747 20.875 29.8258 21.0915 30.4775 21.3604C31.2113 21.6657 31.749 21.9505 32.0908 22.2148C32.4326 22.4792 32.6833 22.7777 32.8428 23.1104C33.0023 23.443 33.082 23.835 33.082 24.2861ZM36.4521 27H34.8457V19.4395H36.4521V27ZM34.75 17.4365C34.75 17.1494 34.8275 16.9284 34.9824 16.7734C35.1419 16.6185 35.3675 16.541 35.6592 16.541C35.9417 16.541 36.1605 16.6185 36.3154 16.7734C36.4749 16.9284 36.5547 17.1494 36.5547 17.4365C36.5547 17.71 36.4749 17.9264 36.3154 18.0859C36.1605 18.2409 35.9417 18.3184 35.6592 18.3184C35.3675 18.3184 35.1419 18.2409 34.9824 18.0859C34.8275 17.9264 34.75 17.71 34.75 17.4365ZM45.1406 19.4395V20.3213L43.8486 20.5605C43.9671 20.7201 44.0651 20.916 44.1426 21.1484C44.2201 21.3809 44.2588 21.627 44.2588 21.8867C44.2588 22.666 43.9899 23.279 43.4521 23.7256C42.9144 24.1722 42.1738 24.3955 41.2305 24.3955C40.9889 24.3955 40.7702 24.3773 40.5742 24.3408C40.2279 24.555 40.0547 24.8057 40.0547 25.0928C40.0547 25.266 40.1344 25.3958 40.2939 25.4824C40.458 25.569 40.7565 25.6123 41.1895 25.6123H42.5088C43.3428 25.6123 43.9762 25.79 44.4092 26.1455C44.8421 26.501 45.0586 27.0137 45.0586 27.6836C45.0586 28.5404 44.7054 29.2012 43.999 29.666C43.2926 30.1309 42.2718 30.3633 40.9365 30.3633C39.9066 30.3633 39.1204 30.181 38.5781 29.8164C38.0358 29.4518 37.7646 28.9323 37.7646 28.2578C37.7646 27.793 37.9105 27.401 38.2021 27.082C38.4984 26.7676 38.9108 26.5488 39.4395 26.4258C39.2253 26.3346 39.0475 26.1888 38.9062 25.9883C38.7695 25.7832 38.7012 25.569 38.7012 25.3457C38.7012 25.0632 38.7809 24.8239 38.9404 24.6279C39.0999 24.432 39.3369 24.2383 39.6514 24.0469C39.2594 23.8783 38.9404 23.6048 38.6943 23.2266C38.4528 22.8438 38.332 22.3971 38.332 21.8867C38.332 21.0664 38.5895 20.4307 39.1045 19.9795C39.624 19.5283 40.3623 19.3027 41.3193 19.3027C41.5335 19.3027 41.7568 19.3187 41.9893 19.3506C42.2262 19.3779 42.404 19.4076 42.5225 19.4395H45.1406ZM39.2002 28.1758C39.2002 28.5221 39.3551 28.7887 39.665 28.9756C39.9795 29.1624 40.4193 29.2559 40.9844 29.2559C41.8594 29.2559 42.5111 29.1305 42.9395 28.8799C43.3678 28.6292 43.582 28.2966 43.582 27.8818C43.582 27.5537 43.4635 27.319 43.2266 27.1777C42.9941 27.041 42.5589 26.9727 41.9209 26.9727H40.7041C40.2438 26.9727 39.877 27.0798 39.6035 27.2939C39.3346 27.5127 39.2002 27.8066 39.2002 28.1758ZM39.8906 21.8867C39.8906 22.3607 40.0114 22.7253 40.2529 22.9805C40.499 23.2357 40.8499 23.3633 41.3057 23.3633C42.2354 23.3633 42.7002 22.8665 42.7002 21.873C42.7002 21.3809 42.584 21.0026 42.3516 20.7383C42.1237 20.4694 41.7751 20.335 41.3057 20.335C40.8408 20.335 40.4876 20.4671 40.2461 20.7314C40.0091 20.9958 39.8906 21.3809 39.8906 21.8867ZM53.2002 27H51.5869V22.3516C51.5869 21.7682 51.4684 21.333 51.2314 21.0459C50.999 20.7588 50.6276 20.6152 50.1172 20.6152C49.4382 20.6152 48.9414 20.8158 48.627 21.2168C48.3125 21.6178 48.1553 22.29 48.1553 23.2334V27H46.5488V19.4395H47.8066L48.0322 20.4307H48.1143C48.3421 20.0706 48.6657 19.7926 49.085 19.5967C49.5042 19.4007 49.9691 19.3027 50.4795 19.3027C52.2933 19.3027 53.2002 20.2256 53.2002 22.0713V27ZM64.4043 27L64.1787 26.0088H64.0967C63.8734 26.3597 63.5544 26.6354 63.1396 26.8359C62.7295 27.0365 62.2601 27.1367 61.7314 27.1367C60.8154 27.1367 60.1318 26.9089 59.6807 26.4531C59.2295 25.9974 59.0039 25.307 59.0039 24.3818V19.4395H60.624V24.1016C60.624 24.6803 60.7425 25.1156 60.9795 25.4072C61.2165 25.6943 61.5879 25.8379 62.0938 25.8379C62.7682 25.8379 63.2627 25.6374 63.5771 25.2363C63.8962 24.8307 64.0557 24.154 64.0557 23.2061V19.4395H65.6689V27H64.4043ZM71.7939 27.1367C70.8369 27.1367 70.0941 26.7926 69.5654 26.1045H69.4697C69.5335 26.7425 69.5654 27.1299 69.5654 27.2666V30.3633H67.959V19.4395H69.2578C69.2943 19.5807 69.3695 19.918 69.4834 20.4512H69.5654C70.0667 19.6855 70.8187 19.3027 71.8213 19.3027C72.7646 19.3027 73.4984 19.6445 74.0225 20.3281C74.5511 21.0117 74.8154 21.971 74.8154 23.2061C74.8154 24.4411 74.5465 25.4049 74.0088 26.0977C73.4756 26.7904 72.7373 27.1367 71.7939 27.1367ZM71.4043 20.6152C70.7663 20.6152 70.2992 20.8021 70.0029 21.1758C69.7113 21.5495 69.5654 22.1465 69.5654 22.9668V23.2061C69.5654 24.1266 69.7113 24.7943 70.0029 25.209C70.2946 25.6191 70.7708 25.8242 71.4316 25.8242C71.9876 25.8242 72.416 25.5964 72.7168 25.1406C73.0176 24.6849 73.168 24.0355 73.168 23.1924C73.168 22.3447 73.0176 21.7044 72.7168 21.2715C72.4206 20.834 71.9831 20.6152 71.4043 20.6152Z" fill="white"/>
</svg>
