<?xml version="1.0" encoding="UTF-8" standalone="no"?>
<svg
   xmlns:dc="http://purl.org/dc/elements/1.1/"
   xmlns:cc="http://creativecommons.org/ns#"
   xmlns:rdf="http://www.w3.org/1999/02/22-rdf-syntax-ns#"
   xmlns:svg="http://www.w3.org/2000/svg"
   xmlns="http://www.w3.org/2000/svg"
   xmlns:sodipodi="http://sodipodi.sourceforge.net/DTD/sodipodi-0.dtd"
   xmlns:inkscape="http://www.inkscape.org/namespaces/inkscape"
   width="98"
   height="46"
   viewBox="0 0 98 46"
   fill="none"
   version="1.1"
   id="svg6"
   sodipodi:docname="singup11.svg"
   inkscape:version="0.92.3 (2405546, 2018-03-11)">
  <metadata
     id="metadata12">
    <rdf:RDF>
      <cc:Work
         rdf:about="">
        <dc:format>image/svg+xml</dc:format>
        <dc:type
           rdf:resource="http://purl.org/dc/dcmitype/StillImage" />
      </cc:Work>
    </rdf:RDF>
  </metadata>
  <defs
     id="defs10" />
  <sodipodi:namedview
     pagecolor="#ffffff"
     bordercolor="#666666"
     borderopacity="1"
     objecttolerance="10"
     gridtolerance="10"
     guidetolerance="10"
     inkscape:pageopacity="0"
     inkscape:pageshadow="2"
     inkscape:window-width="1920"
     inkscape:window-height="1018"
     id="namedview8"
     showgrid="false"
     inkscape:zoom="2.8979592"
     inkscape:cx="49"
     inkscape:cy="23"
     inkscape:window-x="-8"
     inkscape:window-y="-8"
     inkscape:window-maximized="1"
     inkscape:current-layer="svg6" />
  <path
     d="m 0.810059,0.221283 h 47.272209 c 8.088545,0 14.645619,7.0035572 14.645619,15.642851 v 0 c 0,8.639363 -6.557074,15.642908 -14.645683,15.642908 H 0.810059 Z"
     id="path2"
     inkscape:connector-curvature="0"
     style="fill:#0079d4;stroke-width:0.6612705" />
  <path
     d="m 21.459121,16.667486 c 0,0.607349 -0.205583,1.083893 -0.616683,1.429563 -0.411165,0.345738 -0.978324,0.518573 -1.701478,0.518573 -0.723154,0 -1.315139,-0.11987 -1.775828,-0.35968 V 17.20007 c 0.291578,0.146387 0.600687,0.26161 0.927265,0.345738 0.32952,0.08406 0.635686,0.126158 0.918562,0.126158 0.414044,0 0.718739,-0.08413 0.914148,-0.252316 0.198288,-0.168188 0.2974,-0.393987 0.2974,-0.677399 0,-0.255391 -0.09041,-0.471828 -0.271167,-0.649378 -0.18082,-0.177551 -0.554042,-0.387769 -1.11973,-0.630654 -0.583219,-0.252316 -0.994384,-0.540374 -1.23343,-0.864312 -0.23911,-0.323869 -0.358698,-0.713209 -0.358698,-1.167952 0,-0.569967 0.189523,-1.018422 0.568631,-1.345435 0.379045,-0.327013 0.887914,-0.490554 1.52648,-0.490554 0.612332,0 1.221785,0.143244 1.828295,0.429799 l -0.3324,0.910989 c -0.568631,-0.255392 -1.075964,-0.383053 -1.522129,-0.383053 -0.338222,0 -0.594864,0.07941 -0.769798,0.238238 -0.174998,0.155749 -0.262465,0.362823 -0.262465,0.621359 0,0.17755 0.035,0.330156 0.104999,0.457818 0.07,0.124586 0.185171,0.242953 0.345517,0.355033 0.160409,0.112148 0.449043,0.260107 0.866031,0.443876 0.469519,0.208646 0.813564,0.403282 1.032263,0.583908 0.218699,0.180694 0.379108,0.384693 0.481164,0.612065 0.102055,0.227303 0.153051,0.4952 0.153051,0.803488 z m 2.156344,1.854714 h -1.027848 v -5.166942 h 1.027848 z m -1.089082,-6.535818 c 0,-0.196208 0.04959,-0.347242 0.148701,-0.453171 0.102055,-0.105861 0.246404,-0.158825 0.433047,-0.158825 0.180757,0 0.320755,0.05296 0.419867,0.158825 0.102055,0.105929 0.153115,0.256963 0.153115,0.453171 0,0.186913 -0.05106,0.334804 -0.153115,0.443808 -0.09911,0.105929 -0.23911,0.158894 -0.419867,0.158894 -0.186643,0 -0.330992,-0.05297 -0.433047,-0.158894 -0.09911,-0.109004 -0.148701,-0.256895 -0.148701,-0.443808 z m 6.648381,1.368876 v 0.602633 l -0.826681,0.163472 c 0.07582,0.109073 0.138527,0.242954 0.188115,0.401779 0.04959,0.158893 0.07435,0.327081 0.07435,0.504563 0,0.532584 -0.172054,0.951516 -0.516163,1.256728 -0.344045,0.305212 -0.817915,0.457818 -1.421482,0.457818 -0.154586,0 -0.294521,-0.01244 -0.41993,-0.03738 -0.221579,0.146387 -0.3324,0.317718 -0.3324,0.513926 0,0.118367 0.051,0.207074 0.153051,0.266258 0.104999,0.05918 0.295993,0.08877 0.573046,0.08877 h 0.844148 c 0.533631,0 0.93891,0.121442 1.215963,0.364396 0.276989,0.242953 0.415516,0.593339 0.415516,1.051157 0,0.585548 -0.225994,1.037147 -0.677981,1.354797 -0.451987,0.317719 -1.105141,0.476544 -1.959527,0.476544 -0.658977,0 -1.162024,-0.124586 -1.509012,-0.373758 -0.346989,-0.249173 -0.520515,-0.604206 -0.520515,-1.065168 0,-0.31765 0.09335,-0.585548 0.279933,-0.803556 0.189586,-0.214865 0.453458,-0.364396 0.791745,-0.448456 -0.137055,-0.06233 -0.25082,-0.161969 -0.34123,-0.298993 -0.08747,-0.140168 -0.131168,-0.286555 -0.131168,-0.439161 0,-0.193064 0.051,-0.356605 0.153051,-0.490554 0.102055,-0.13388 0.253699,-0.266257 0.45493,-0.397062 -0.250819,-0.115224 -0.45493,-0.302137 -0.612396,-0.560604 -0.154523,-0.26161 -0.231816,-0.566891 -0.231816,-0.915705 0,-0.560603 0.16476,-0.995049 0.49428,-1.303404 0.3324,-0.308356 0.804798,-0.462534 1.417131,-0.462534 0.137055,0 0.279932,0.01093 0.428696,0.03273 0.15158,0.01866 0.265344,0.03895 0.341166,0.06076 z m -3.800939,5.970499 c 0,0.236665 0.09911,0.418863 0.2974,0.546593 0.201231,0.127662 0.482636,0.191561 0.844212,0.191561 0.559865,0 0.976853,-0.0857 1.250963,-0.256964 0.274046,-0.171331 0.411101,-0.398634 0.411101,-0.682114 0,-0.224228 -0.07582,-0.384624 -0.227402,-0.481191 -0.148764,-0.09342 -0.427225,-0.140099 -0.835446,-0.140099 h -0.778564 c -0.294521,0 -0.529217,0.07319 -0.704215,0.219512 -0.172054,0.149531 -0.258049,0.350386 -0.258049,0.602702 z m 0.441749,-4.298052 c 0,0.323938 0.07729,0.57311 0.231816,0.747517 0.157466,0.174407 0.381988,0.261611 0.67363,0.261611 0.594864,0 0.892265,-0.33952 0.892265,-1.01849 0,-0.336308 -0.07435,-0.594843 -0.223051,-0.775469 -0.14582,-0.18377 -0.368871,-0.27562 -0.669214,-0.27562 -0.297464,0 -0.523458,0.09028 -0.677981,0.270905 -0.151643,0.180694 -0.227465,0.443876 -0.227465,0.789546 z m 8.51609,3.494495 h -1.032263 v -3.176776 c 0,-0.398703 -0.07582,-0.696124 -0.227465,-0.892332 -0.1487,-0.196208 -0.386339,-0.294346 -0.712916,-0.294346 -0.434455,0 -0.752331,0.137093 -0.953498,0.411141 -0.201232,0.274049 -0.301815,0.733439 -0.301815,1.37817 V 18.5222 h -1.027912 v -5.166942 h 0.804798 l 0.144349,0.677398 h 0.05253 c 0.145757,-0.246097 0.352811,-0.436085 0.621098,-0.569966 0.268224,-0.133949 0.565688,-0.200923 0.892265,-0.200923 1.160552,0 1.740828,0.630721 1.740828,1.892096 z m 7.168895,0 -0.144349,-0.677399 h -0.05247 c -0.142878,0.23981 -0.346989,0.428227 -0.612397,0.565251 -0.2624,0.137092 -0.562744,0.20557 -0.90103,0.20557 -0.586099,0 -1.023498,-0.155681 -1.312132,-0.467181 -0.288698,-0.311431 -0.433047,-0.783259 -0.433047,-1.415552 v -3.377631 h 1.036614 v 3.186138 c 0,0.395491 0.07582,0.692981 0.227465,0.892264 0.151643,0.196208 0.389282,0.294346 0.71298,0.294346 0.431512,0 0.747915,-0.137024 0.949083,-0.411141 0.204175,-0.277192 0.30623,-0.739658 0.30623,-1.387465 v -2.574142 h 1.032199 V 18.5222 Z m 4.728204,0.09342 c -0.612333,0 -1.08761,-0.235162 -1.425896,-0.705418 h -0.06123 c 0.04082,0.436017 0.06123,0.700771 0.06123,0.794194 v 2.116324 h -1.027848 v -7.465464 h 0.831031 c 0.02335,0.0965 0.07147,0.327013 0.144349,0.691408 h 0.05247 c 0.320754,-0.523289 0.801918,-0.784899 1.443428,-0.784899 0.603566,0 1.073085,0.23359 1.408428,0.700771 0.338222,0.467181 0.507333,1.122779 0.507333,1.966862 0,0.844015 -0.172054,1.502688 -0.516099,1.976157 -0.341166,0.4734 -0.813564,0.710065 -1.417194,0.710065 z m -0.249284,-4.456876 c -0.408222,0 -0.707094,0.12773 -0.89668,0.383121 -0.186579,0.255392 -0.279932,0.663389 -0.279932,1.223993 v 0.16354 c 0,0.629082 0.09335,1.085396 0.279932,1.368808 0.186643,0.280267 0.491338,0.420435 0.914148,0.420435 0.355754,0 0.629864,-0.155681 0.822329,-0.467181 0.192466,-0.311431 0.288699,-0.755239 0.288699,-1.331425 0,-0.579329 -0.09623,-1.016918 -0.288699,-1.312767 -0.189522,-0.298993 -0.469454,-0.448524 -0.839797,-0.448524 z"
     id="path4"
     inkscape:connector-curvature="0"
     style="fill:#ffffff;stroke-width:0.6612705" />
</svg>
